<?xml version="1.0" encoding="UTF-8"?>
<svg id="Layer_3" data-name="Layer 3" xmlns="http://www.w3.org/2000/svg" viewBox="0 0 464.5 30.44">
  <defs>
    <style>
      .cls-1 {
        fill: #231f20;
      }
    </style>
  </defs>
  <polygon class="cls-1" points=".31 .99 2.66 .99 13.11 27.01 23.5 .99 25.73 .99 14.04 29.54 11.99 29.54 .31 .99"/>
  <rect class="cls-1" x="30.18" y=".99" width="2.05" height="28.54"/>
  <path class="cls-1" d="M39.42,24.31c.97,1.17,2.14,2.13,3.49,2.87,1.36.74,3,1.11,4.95,1.11,1.11,0,2.13-.13,3.06-.39.93-.26,1.72-.63,2.39-1.13.67-.5,1.19-1.13,1.57-1.88.37-.76.55-1.63.55-2.63,0-1.05-.2-1.95-.62-2.69-.41-.74-.96-1.37-1.64-1.87-.69-.5-1.46-.9-2.33-1.22-.87-.31-1.75-.6-2.63-.85-1.09-.29-2.17-.61-3.25-.97-1.08-.36-2.05-.82-2.91-1.41-.85-.58-1.54-1.32-2.07-2.23-.53-.9-.79-2.06-.79-3.49,0-.97.2-1.9.6-2.78.4-.89.98-1.65,1.73-2.31.76-.66,1.68-1.18,2.78-1.56,1.1-.39,2.35-.58,3.74-.58,1.2,0,2.26.13,3.19.38.93.26,1.74.58,2.44.96.7.39,1.28.81,1.76,1.27.47.46.87.9,1.17,1.32l-1.45,1.24c-.26-.34-.59-.7-.99-1.09-.4-.39-.88-.74-1.45-1.07-.57-.33-1.25-.6-2.03-.82-.78-.21-1.69-.32-2.72-.32-1.17,0-2.18.16-3.02.47-.84.32-1.53.73-2.07,1.24-.55.51-.95,1.09-1.2,1.73-.26.64-.38,1.3-.38,1.99,0,1.02.23,1.87.71,2.54.47.67,1.09,1.23,1.86,1.67.77.44,1.63.81,2.59,1.09.96.29,1.92.56,2.89.81,1,.26,2,.58,2.99.96,1,.39,1.89.9,2.68,1.54.78.64,1.42,1.45,1.92,2.42.5.97.75,2.17.75,3.59,0,1.22-.26,2.33-.77,3.32-.51.98-1.21,1.81-2.08,2.5-.87.68-1.9,1.21-3.1,1.58-1.2.38-2.49.56-3.85.56-1.2,0-2.31-.13-3.34-.39-1.02-.26-1.96-.59-2.8-1.01-.85-.41-1.59-.89-2.23-1.41-.64-.53-1.16-1.08-1.56-1.66l1.5-1.45Z"/>
  <path class="cls-1" d="M63.52.99h2.05v16.09c0,1.62.13,3.12.38,4.49.26,1.37.72,2.55,1.39,3.55.67,1,1.57,1.77,2.72,2.33,1.13.56,2.59.84,4.36.84s3.22-.28,4.36-.84c1.14-.56,2.04-1.33,2.72-2.33.67-1,1.13-2.18,1.39-3.55.25-1.37.38-2.87.38-4.49V.99h2.05v17.15c0,1.69-.17,3.26-.53,4.73-.36,1.47-.96,2.75-1.8,3.83-.84,1.09-1.96,1.94-3.36,2.57-1.4.62-3.13.94-5.22.94s-3.83-.32-5.22-.94c-1.39-.63-2.52-1.48-3.36-2.57-.84-1.08-1.45-2.36-1.79-3.83-.36-1.47-.54-3.05-.54-4.73V.99Z"/>
  <path class="cls-1" d="M100.48.99h2.06l11.68,28.54h-2.36l-3.72-9.2h-13.44l-3.68,9.2h-2.22L100.48.99ZM107.37,18.41l-5.95-14.81-5.94,14.81h11.89Z"/>
  <polygon class="cls-1" points="118.76 .99 120.82 .99 120.82 27.61 136.99 27.61 136.99 29.54 118.76 29.54 118.76 .99"/>
  <rect class="cls-1" x="141.87" y=".99" width="2.05" height="28.54"/>
  <polygon class="cls-1" points="149.7 27.65 168.91 2.92 150.64 2.92 150.64 .99 171.56 .99 171.56 2.87 152.36 27.61 171.87 27.61 171.87 29.54 149.7 29.54 149.7 27.65"/>
  <rect class="cls-1" x="177.64" y=".99" width="2.05" height="28.54"/>
  <polygon class="cls-1" points="187.06 .99 189.2 .99 207.51 26.46 207.51 .99 209.52 .99 209.52 29.54 207.38 29.54 189.07 4.41 189.07 29.54 187.06 29.54 187.06 .99"/>
  <path class="cls-1" d="M238.37,17.94h-7.62v-1.93h9.67v10.7c-.49.43-1.07.85-1.75,1.26-.68.41-1.47.79-2.37,1.14-.9.34-1.91.61-3.04.81-1.13.2-2.39.3-3.79.3-2.06,0-3.94-.37-5.65-1.09-1.71-.72-3.18-1.76-4.39-3.08-1.21-1.33-2.15-2.91-2.82-4.75-.67-1.84-1.01-3.86-1.01-6.06,0-2.08.34-4.03,1.01-5.84.67-1.81,1.61-3.39,2.82-4.75,1.21-1.36,2.68-2.42,4.39-3.19,1.71-.77,3.59-1.16,5.65-1.16,1.68,0,3.13.23,4.34.69,1.21.45,2.24.99,3.06,1.6.83.61,1.47,1.22,1.94,1.81.47.6.79,1.04.96,1.33l-1.54,1.07c-.17-.22-.45-.59-.86-1.09-.4-.5-.94-1.01-1.65-1.52-.7-.51-1.55-.97-2.55-1.37-1-.4-2.16-.6-3.51-.6-1.85,0-3.51.34-4.98,1.01-1.47.67-2.71,1.59-3.73,2.76-1.02,1.17-1.79,2.54-2.33,4.13-.55,1.58-.81,3.29-.81,5.11s.26,3.54.79,5.12c.53,1.58,1.3,2.96,2.31,4.15,1.02,1.18,2.24,2.11,3.68,2.78,1.44.67,3.06,1.01,4.86,1.01,2.19,0,4-.24,5.42-.73,1.41-.49,2.57-1.05,3.49-1.71v-7.91Z"/>
  <path class="cls-1" d="M246.5.99h11.64c1.54,0,2.93.21,4.17.62,1.24.41,2.3,1.01,3.19,1.8.88.78,1.57,1.77,2.06,2.95.48,1.19.72,2.55.72,4.09,0,1.46-.25,2.78-.75,3.96-.5,1.18-1.19,2.2-2.06,3.04-.87.84-1.91,1.49-3.13,1.93-1.21.44-2.54.66-4,.66h-4.45v9.51h-7.4V.99ZM257.5,14.09c1.03,0,1.84-.33,2.44-.98.6-.66.9-1.5.9-2.52,0-1.08-.28-1.95-.85-2.61-.57-.66-1.41-.98-2.52-.98h-3.56v7.11h3.6Z"/>
  <path class="cls-1" d="M276.54.99h8.69l10.09,28.54h-8.17l-1.85-5.91h-9.54l-1.89,5.91h-7.83l10.48-28.54ZM283.77,18.11l-3.17-10.48-3.3,10.48h6.46Z"/>
  <polygon class="cls-1" points="298.32 .99 305.9 .99 305.9 22.86 319.11 22.86 319.11 29.54 298.32 29.54 298.32 .99"/>
  <polygon class="cls-1" points="322.54 .99 343.08 .99 343.08 7.54 330.12 7.54 330.12 11.95 340.77 11.95 340.77 18.11 330.12 18.11 330.12 22.99 343.98 22.99 343.98 29.54 322.54 29.54 322.54 .99"/>
  <path class="cls-1" d="M350.36,20.5c.8.8,1.84,1.53,3.12,2.18,1.28.66,2.7.99,4.24.99.37,0,.75-.04,1.15-.11.4-.07.75-.19,1.07-.36.32-.17.57-.4.78-.69.19-.28.29-.65.29-1.11,0-.74-.38-1.35-1.14-1.84-.76-.49-1.86-.98-3.31-1.46l-1.59-.51c-.89-.28-1.78-.66-2.67-1.12-.9-.45-1.7-1-2.42-1.65-.72-.63-1.29-1.4-1.73-2.26-.45-.87-.67-1.89-.67-3.06,0-1.31.25-2.53.73-3.66.49-1.13,1.19-2.11,2.12-2.95.92-.84,2.08-1.5,3.45-1.97,1.36-.47,2.95-.71,4.74-.71,1.4,0,2.67.13,3.81.38,1.14.26,2.14.57,3,.94.85.37,1.58.77,2.18,1.2.6.43,1.05.81,1.37,1.16l-3.86,4.88c-1-.74-2.04-1.35-3.12-1.82-1.09-.47-2.2-.71-3.34-.71-.36,0-.73.04-1.11.13-.37.09-.71.21-1,.38-.3.17-.54.39-.73.66-.18.27-.28.61-.28,1.01,0,.43.11.8.32,1.11.21.32.51.58.88.81.37.23.82.44,1.35.62.53.19,1.09.38,1.69.58l1.37.43c.97.31,1.96.68,2.95,1.09,1,.41,1.9.97,2.69,1.67.8.7,1.46,1.57,1.97,2.61.51,1.04.77,2.32.77,3.82,0,1.31-.31,2.53-.92,3.64-.61,1.11-1.44,2.07-2.48,2.86-1.04.8-2.27,1.43-3.68,1.86-1.41.45-2.92.67-4.52.67-2.85,0-5.24-.38-7.17-1.14-1.92-.75-3.56-1.77-4.89-3.06l4.57-5.52Z"/>
  <polygon class="cls-1" points="379.8 7.63 371.03 7.63 371.03 .99 396.14 .99 396.14 7.63 387.46 7.63 387.46 29.54 379.8 29.54 379.8 7.63"/>
  <rect class="cls-1" x="399.57" y=".99" width="7.57" height="28.54"/>
  <polygon class="cls-1" points="412.28 .99 419.17 .99 430.12 16.91 430.12 .99 437.61 .99 437.61 29.54 431.15 29.54 419.76 13.14 419.76 29.54 412.28 29.54 412.28 .99"/>
  <polygon class="cls-1" points="442.75 .99 463.29 .99 463.29 7.54 450.32 7.54 450.32 11.95 460.98 11.95 460.98 18.11 450.32 18.11 450.32 22.99 464.19 22.99 464.19 29.54 442.75 29.54 442.75 .99"/>
</svg>