<svg width="24" height="16" viewBox="0 0 24 16" fill="none" xmlns="http://www.w3.org/2000/svg">
<path d="M23.2551 7.63219C23.2151 7.55219 23.1851 7.46219 23.1351 7.37219C23.0851 7.27219 23.0351 7.20219 22.9751 7.12219C22.9251 7.06219 22.8751 7.00219 22.8251 6.95219C22.8451 6.87219 22.8551 6.79219 22.8651 6.70219C22.8951 6.41219 22.865 6.11219 22.655 5.99219C22.315 5.78219 22.1151 6.09219 21.7651 5.88219C21.4151 5.67219 21.505 5.54219 21.155 5.32219C20.815 5.11219 20.7551 5.20219 20.4151 4.98219C20.0751 4.77219 20.0851 4.74219 19.7351 4.53219C19.3851 4.32219 19.2451 4.55219 18.8951 4.34219C18.5451 4.13219 18.5951 4.05219 18.2551 3.84219C17.9051 3.63219 18.035 3.43219 17.685 3.22219C17.335 3.01219 17.3051 3.07219 16.9551 2.86219C16.6051 2.65219 16.595 2.67219 16.245 2.46219C15.895 2.25219 16.0451 2.02219 15.6951 1.81219C15.3451 1.60219 15.1851 1.86219 14.8351 1.66219C14.4751 1.47219 14.4951 1.44219 14.1351 1.25219C13.7851 1.06219 13.925 0.842192 13.595 0.672192C13.435 0.582191 13.3651 0.512192 13.3051 0.432192C13.2751 0.392192 13.2351 0.362192 13.2051 0.322192C13.1651 0.282192 13.105 0.252192 13.035 0.222192C12.695 0.0621917 12.3451 0.232192 12.1651 0.362192C12.0751 0.432192 11.9351 0.532192 11.8551 0.692192C11.7751 0.852192 11.745 1.07219 11.905 1.32219C11.975 1.42219 12.0451 1.49219 12.1051 1.54219C12.1751 1.58219 12.245 1.60219 12.315 1.62219C12.455 1.66219 12.5851 1.69219 12.7551 1.83219C13.0951 2.11219 13.2051 1.97219 13.5451 2.21219C13.8751 2.44219 13.9051 2.40219 14.2351 2.64219C14.5651 2.87219 14.585 2.84219 14.935 3.05219C15.275 3.27219 15.0551 3.62219 15.3951 3.84219C15.7351 4.06219 15.865 3.84219 16.215 4.06219C16.555 4.28219 16.4651 4.42219 16.8051 4.64219C17.1451 4.86219 17.2051 4.77219 17.5451 4.99219C17.8851 5.21219 17.8051 5.34219 18.1451 5.56219C18.4851 5.78219 18.5751 5.63219 18.9151 5.85219C19.2551 6.07219 19.1651 6.21219 19.5151 6.42219C19.8551 6.63219 20.0051 6.39219 20.3551 6.61219C20.5451 6.73219 20.5751 6.88219 20.6151 7.02219C20.5851 7.02219 20.565 7.02219 20.535 7.02219C19.815 7.03219 19.8051 6.86219 19.0851 6.87219C18.3651 6.88219 18.3651 7.01219 17.6351 7.02219C16.9151 7.03219 16.915 7.00219 16.185 7.02219C15.465 7.03219 15.465 7.34219 14.745 7.35219C14.025 7.36219 14.0251 7.25219 13.2951 7.26219C12.5751 7.27219 12.565 6.99219 11.845 7.01219C11.125 7.03219 11.1251 7.11219 10.3951 7.13219C9.67507 7.15219 9.67505 7.18219 8.94505 7.20219C8.22505 7.22219 8.21504 6.90219 7.49504 6.92219C7.13504 6.93219 6.95504 7.02219 6.77504 7.11219C6.59504 7.20219 6.41505 7.29219 6.05505 7.31219C5.33505 7.35219 5.33505 7.31219 4.61505 7.35219C4.25505 7.37219 4.07505 7.30219 3.89505 7.23219C3.71505 7.16219 3.53505 7.11219 3.17505 7.16219C2.81505 7.21219 2.60506 7.20219 2.38506 7.19219C2.27506 7.19219 2.17506 7.19219 2.04506 7.19219C1.92506 7.20219 1.77505 7.24219 1.59505 7.28219C1.38505 7.33219 1.22505 7.41219 1.09505 7.48219C1.03505 7.56219 0.975059 7.60219 0.935059 7.66219C0.915059 7.68219 0.895061 7.72219 0.875061 7.73219C0.875061 7.73219 0.875061 7.71219 0.875061 7.76219L0.865051 7.79219L0.835052 7.83219C0.705052 8.05219 0.685059 8.10219 0.685059 8.15219C0.685059 8.20219 0.705052 8.25219 0.835052 8.45219C0.905052 8.57219 0.995051 8.66219 1.11505 8.78219C1.24505 8.87219 1.40505 8.93219 1.61505 8.97219C1.79505 9.01219 1.93505 9.02219 2.06505 9.02219C2.18505 9.01219 2.28505 8.98219 2.39505 8.95219C2.59505 8.89219 2.80505 8.83219 3.16505 8.85219C3.89505 8.91219 3.92506 8.70219 4.65506 8.71219C5.37506 8.72219 5.37506 8.67219 6.10506 8.68219C6.46506 8.68219 6.64506 8.67219 6.82506 8.66219C7.00506 8.65219 7.18506 8.63219 7.54506 8.63219C8.26506 8.63219 8.27504 9.11219 8.99504 9.12219C9.71504 9.12219 9.71504 8.82219 10.435 8.82219C11.155 8.82219 11.1651 9.01219 11.8851 9.01219C12.6051 9.01219 12.6051 8.88219 13.3351 8.87219C14.0551 8.87219 14.065 9.04219 14.785 9.03219C15.505 9.03219 15.5051 8.82219 16.2251 8.81219C16.9451 8.81219 16.9551 8.99219 17.6751 8.99219C18.3951 8.99219 18.3951 8.66219 19.1151 8.65219C19.8351 8.65219 19.845 9.06219 20.565 9.05219C20.625 9.05219 20.675 9.05219 20.715 9.05219C20.645 9.15219 20.5951 9.24219 20.4251 9.36219C20.1251 9.56219 20.1451 9.59219 19.8551 9.80219C19.5651 10.0122 19.5851 10.0422 19.2951 10.2522C19.0051 10.4622 18.7751 10.1522 18.4851 10.3622C18.1951 10.5722 18.325 10.7622 18.035 10.9722C17.745 11.1822 17.6551 11.0622 17.3651 11.2822C17.0751 11.4922 17.135 11.5722 16.845 11.7922C16.555 12.0022 16.475 11.9022 16.185 12.1122C15.895 12.3322 15.9951 12.4522 15.7051 12.6722C15.4151 12.8922 15.3251 12.7722 15.0451 12.9922C14.7551 13.2122 14.915 13.4122 14.625 13.6322C14.345 13.8522 14.1451 13.6022 13.8551 13.8222C13.5751 14.0422 13.3351 13.7922 13.0451 14.0122C12.9651 14.0822 12.9051 14.1522 12.9251 14.3122C12.9251 14.3322 12.9251 14.3522 12.9251 14.3622L12.9551 14.4422L13.0051 14.5922C13.0051 14.5922 13.015 14.6322 13.035 14.6722C13.035 14.6822 13.035 14.7022 13.035 14.7222L13.065 14.8222C13.135 15.0822 13.1851 15.2422 13.2551 15.3222C13.3251 15.4122 13.4651 15.4922 13.7051 15.6022L13.7951 15.6422C13.7951 15.6422 13.805 15.6422 13.815 15.6422C13.845 15.6722 13.8351 15.6622 13.8551 15.6722L13.9151 15.7122L14.0451 15.7922C14.0451 15.7922 14.1151 15.8222 14.1451 15.8222C14.1751 15.8222 14.215 15.8422 14.245 15.8422C14.275 15.8422 14.2951 15.8422 14.3251 15.8322C14.3751 15.8222 14.4151 15.8022 14.4551 15.7622C14.7351 15.5422 14.5251 15.2722 14.8051 15.0522C15.0851 14.8322 15.1651 14.9322 15.4451 14.7122C15.7251 14.4922 15.6651 14.4122 15.9451 14.1922C16.2251 13.9722 16.2351 13.9922 16.5151 13.7722C16.7951 13.5522 16.655 13.3622 16.935 13.1422C17.215 12.9222 17.2651 12.9922 17.5551 12.7722C17.8351 12.5522 17.9651 12.7222 18.2551 12.5122C18.5351 12.2922 18.505 12.2422 18.785 12.0322C19.065 11.8222 19.055 11.8022 19.345 11.5822C19.635 11.3722 19.775 11.5722 20.065 11.3522C20.355 11.1422 20.1851 10.9122 20.4751 10.7022C20.7551 10.4822 20.7751 10.5022 21.0551 10.2822C21.3351 10.0622 21.485 10.2722 21.745 10.0222C21.875 9.90219 21.975 9.85219 22.065 9.81219C22.115 9.79219 22.1551 9.76219 22.1951 9.71219C22.2351 9.66219 22.2851 9.60219 22.3351 9.52219C22.3551 9.49219 22.365 9.47219 22.375 9.44219C22.455 9.41219 22.525 9.38219 22.595 9.34219C22.755 9.24219 22.885 9.12219 22.995 8.94219C23.105 8.80219 23.1851 8.54219 23.2351 8.38219C23.2651 8.29219 23.2851 8.24219 23.2951 8.16219C23.3051 8.10219 23.315 8.05219 23.315 8.00219C23.315 7.90219 23.285 7.80219 23.215 7.64219L23.2551 7.63219Z" fill="#0F0708"/>
</svg>
