<svg width="24" height="16" viewBox="0 0 24 16" fill="none" xmlns="http://www.w3.org/2000/svg">
<path d="M21.9038 7.10185C21.2038 7.10185 21.1938 7.41185 20.4938 7.40185C19.7938 7.40185 19.7938 7.27185 19.0938 7.26185C18.3938 7.26185 18.3938 7.34185 17.6938 7.34185C16.9938 7.34185 16.9938 7.32185 16.2938 7.31185C15.5938 7.31185 15.5938 7.53185 14.8938 7.53185C14.1938 7.53185 14.1938 7.45185 13.4938 7.44185C12.7938 7.44185 12.7938 7.23185 12.0938 7.23185C11.3938 7.23185 11.3938 7.29185 10.6938 7.30185C9.99375 7.30185 9.99375 7.32185 9.29375 7.33185C8.59375 7.33185 8.59375 7.11185 7.90375 7.11185C7.20375 7.11185 7.20375 7.36185 6.50375 7.36185C6.15375 7.36185 5.98375 7.36185 5.80375 7.36185C5.63375 7.36185 5.45375 7.36185 5.10375 7.36185C4.40375 7.38185 4.41375 7.16185 3.71375 7.19185C3.37375 7.21185 3.17375 7.19185 2.98375 7.18185C3.03375 7.08185 3.06375 6.96185 3.21375 6.87185C3.48375 6.68185 3.41375 6.55185 3.68375 6.36185C3.95375 6.17185 3.93375 6.14185 4.20375 5.94185C4.47375 5.75185 4.45375 5.72185 4.72375 5.52185C4.99375 5.32185 5.19375 5.58185 5.45375 5.39185C5.72375 5.19185 5.60375 5.04185 5.86375 4.84185C6.13375 4.64185 6.20375 4.74185 6.47375 4.54185C6.74375 4.34185 6.68375 4.27185 6.95375 4.07185C7.21375 3.87185 7.29375 3.96185 7.55375 3.76185C7.81375 3.56185 7.73375 3.46185 7.99375 3.25185C8.25375 3.04185 8.32375 3.14185 8.58375 2.92185C8.84375 2.71185 8.71375 2.55185 8.96375 2.34185C9.22375 2.13185 9.38375 2.34185 9.62375 2.10185C9.86375 1.87185 10.0538 2.07185 10.2638 1.79185C10.3838 1.63185 10.4138 1.43185 10.3838 1.24185C10.3638 1.05185 10.3038 0.90185 10.2438 0.83185C10.1338 0.69185 9.65375 0.47185 9.30375 0.64185C8.99375 0.79185 9.16375 1.00185 8.89375 1.19185C8.62375 1.38185 8.55375 1.30185 8.29375 1.50185C8.03375 1.70185 8.07375 1.76185 7.81375 1.96185C7.55375 2.16185 7.53375 2.15185 7.27375 2.34185C7.01375 2.54185 7.14375 2.71185 6.88375 2.91185C6.62375 3.12185 6.58375 3.06185 6.32375 3.27185C6.06375 3.47185 5.95375 3.33185 5.69375 3.54185C5.43375 3.75185 5.46375 3.79185 5.20375 3.99185C4.94375 4.19185 4.95375 4.21185 4.69375 4.41185C4.43375 4.61185 4.31375 4.45185 4.05375 4.66185C3.80375 4.87185 3.93375 5.05185 3.67375 5.26185C3.41375 5.47185 3.40375 5.45185 3.14375 5.65185C2.88375 5.86185 2.75375 5.68185 2.49375 5.89185C2.24375 6.11185 2.10375 6.02185 1.91375 6.31185C1.81375 6.50185 1.80375 6.67185 1.83375 6.81185C1.60375 6.91185 1.38375 7.08185 1.24375 7.22185C0.963753 7.53185 0.643753 8.27185 0.953753 8.56185C1.23375 8.81185 1.47375 8.56185 1.75375 8.81185C2.03375 9.06185 1.93375 9.17185 2.21375 9.42185C2.49375 9.67185 2.56375 9.60185 2.83375 9.85185C3.11375 10.1019 3.09375 10.1218 3.37375 10.3718C3.65375 10.6218 3.82375 10.4319 4.10375 10.6819C4.38375 10.9319 4.32375 11.0019 4.60375 11.2519C4.88375 11.5019 4.73375 11.6719 5.01375 11.9219C5.29375 12.1719 5.34375 12.1218 5.62375 12.3718C5.90375 12.6218 5.92375 12.6019 6.21375 12.8419C6.50375 13.0819 6.33375 13.2619 6.63375 13.5019C6.92375 13.7319 7.10375 13.5418 7.39375 13.7818C7.69375 14.0118 7.67375 14.0319 7.97375 14.2619C8.12375 14.3719 8.16375 14.4718 8.19375 14.5718C8.23375 14.6618 8.28375 14.7519 8.45375 14.8419C8.79375 15.0319 8.79375 15.1218 9.15375 15.2918C9.52375 15.5318 9.73375 15.3818 9.82375 15.2818C9.92375 15.1818 10.0738 14.9319 9.80375 14.5919C9.60375 14.2619 9.44375 14.3518 9.21375 14.0518C8.98375 13.7418 8.87375 13.8318 8.61375 13.5618C8.35375 13.2918 8.32375 13.3218 8.06375 13.0418C7.79375 12.7818 7.77375 12.8018 7.50375 12.5418C7.23375 12.2818 7.49375 12.0018 7.22375 11.7318C6.96375 11.4618 6.80375 11.6318 6.53375 11.3818C6.26375 11.1218 6.36375 11.0119 6.09375 10.7519C5.82375 10.4919 5.75375 10.5718 5.47375 10.3118C5.20375 10.0518 5.29375 9.95185 5.02375 9.69185C4.75375 9.43185 4.63375 9.56185 4.36375 9.30185C4.08375 9.05185 4.19375 8.93185 3.91375 8.68185C3.66375 8.45185 3.49375 8.59185 3.25375 8.43185C3.36375 8.42185 3.49375 8.41185 3.66375 8.42185C4.36375 8.46185 4.40375 8.31185 5.10375 8.34185C5.80375 8.37185 5.80375 8.34185 6.50375 8.35185C7.20375 8.36185 7.20375 8.33185 7.90375 8.35185C8.60375 8.36185 8.59375 8.71185 9.29375 8.73185C9.99375 8.75185 9.99375 8.53185 10.6938 8.55185C11.3938 8.56185 11.3938 8.70185 12.0938 8.72185C12.7938 8.73185 12.7938 8.63185 13.4938 8.64185C14.1938 8.64185 14.1938 8.78185 14.8938 8.79185C15.5938 8.79185 15.5938 8.65185 16.2938 8.66185C16.9938 8.66185 16.9938 8.81185 17.6938 8.81185C18.3938 8.81185 18.3938 8.58185 19.0938 8.59185C19.7938 8.59185 19.7938 8.90185 20.4838 8.91185C21.1838 8.91185 21.2338 9.24185 21.9338 9.25185C22.1338 9.26185 22.3138 9.18185 22.4638 9.11185C22.6138 9.03185 22.7538 8.93185 22.8538 8.82185C22.9638 8.72185 23.0438 8.58185 23.0938 8.47185C23.1438 8.36185 23.1738 8.27185 23.1738 8.19185C23.1738 7.91185 22.6938 7.18185 21.8838 7.14185L21.9038 7.10185Z" fill="black"/>
</svg>
