<svg width="16" height="16" viewBox="0 0 16 16" fill="none" xmlns="http://www.w3.org/2000/svg">
  <path d="M11.7774 7.93762C11.8274 7.93762 11.1074 9.03762 11.1574 9.04762C11.0874 9.13762 11.0374 9.23762 10.8674 9.34762C10.5674 9.54762 10.5974 9.57762 10.2974 9.77762C10.0074 9.98762 10.0274 10.0176 9.73737 10.2276C9.44737 10.4376 9.21738 10.1276 8.92738 10.3376C8.63738 10.5476 8.77737 10.7276 8.48737 10.9476C8.19737 11.1576 8.10736 11.0376 7.81736 11.2576C7.52736 11.4676 7.58737 11.5476 7.29737 11.7576C7.00737 11.9676 6.92737 11.8676 6.63737 12.0776C6.34737 12.2876 6.44736 12.4176 6.15736 12.6276C5.86736 12.8476 5.78738 12.7276 5.49738 12.9476C5.21738 13.1676 5.36738 13.3676 5.08738 13.5776C4.80738 13.7976 4.60737 13.5476 4.32737 13.7676C4.04737 13.9876 3.80737 13.7376 3.51737 13.9576C3.43737 14.0276 3.37738 14.0976 3.39738 14.2476C3.39738 14.2676 3.39738 14.2876 3.39738 14.2976L3.42738 14.3776L3.47736 14.5276C3.47736 14.5276 3.48736 14.5676 3.50736 14.6076C3.50736 14.6176 3.50736 14.6376 3.50736 14.6576L3.53736 14.7576C3.60736 15.0076 3.65736 15.1776 3.72736 15.2576C3.79736 15.3476 3.93738 15.4276 4.17738 15.5376L4.26737 15.5776C4.26737 15.5776 4.27736 15.5776 4.28736 15.5776C4.31736 15.6076 4.30737 15.5976 4.32737 15.6076L4.38737 15.6476L4.51737 15.7276C4.51737 15.7276 4.58738 15.7576 4.61738 15.7576C4.64738 15.7576 4.67739 15.7776 4.71739 15.7776C4.74739 15.7776 4.76737 15.7776 4.79737 15.7676C4.84737 15.7576 4.88738 15.7376 4.92738 15.6976C5.20738 15.4776 4.99738 15.2076 5.27738 14.9876C5.55738 14.7676 5.63737 14.8676 5.91737 14.6476C6.19737 14.4276 6.13737 14.3476 6.41737 14.1276C6.69737 13.9076 6.70737 13.9276 6.98737 13.7076C7.26737 13.4876 7.11736 13.2976 7.40736 13.0876C7.68736 12.8676 7.73737 12.9376 8.01737 12.7176C8.29737 12.4976 8.42738 12.6676 8.70738 12.4576C8.98738 12.2376 8.95737 12.1876 9.23737 11.9776C9.51737 11.7676 9.50736 11.7476 9.78736 11.5376C10.0674 11.3276 10.2174 11.5276 10.4974 11.3176C10.7774 11.1076 10.6174 10.8876 10.9074 10.6776C11.1874 10.4576 11.2074 10.4776 11.4774 10.2576C11.7574 10.0376 11.9074 10.2476 12.1674 10.0076C12.2974 9.88762 12.3974 9.83762 12.4874 9.79762C12.5374 9.77762 12.5774 9.74762 12.6174 9.69762C12.6574 9.64762 12.7074 9.58762 12.7574 9.50762C12.7774 9.47762 12.7874 9.45762 12.7974 9.42762C12.8774 9.39762 12.9474 9.36762 13.0174 9.32762C13.1774 9.22762 13.3074 9.10762 13.4174 8.93762C13.5274 8.79762 13.6074 8.53762 13.6574 8.38762C13.6874 8.30762 13.7074 8.24762 13.7174 8.16762C13.7274 8.10762 13.7374 8.05762 13.7374 8.01762C13.7374 7.92762 13.7074 7.81762 13.6374 7.65762C13.5974 7.57762 13.5674 7.48762 13.5174 7.39762C13.4674 7.29762 13.4174 7.22762 13.3574 7.14762C13.3074 7.08762 13.2574 7.02762 13.2074 6.97762C13.2274 6.89762 13.2374 6.81762 13.2474 6.73762C13.2774 6.44762 12.9274 6.08762 12.7274 5.97762C12.7274 5.97762 12.4974 6.13762 12.1574 5.91762C11.8174 5.69762 11.8974 5.57762 11.5574 5.35762C11.2174 5.14762 11.1574 5.23762 10.8174 5.01762C10.4774 4.80762 10.4874 4.77762 10.1474 4.57762C9.80738 4.36762 9.65736 4.59762 9.31736 4.38762C8.97736 4.17762 9.02738 4.09762 8.67738 3.88762C8.33738 3.67762 8.45738 3.47762 8.11738 3.26762C7.76738 3.05762 7.73737 3.11762 7.38737 2.90762C7.04737 2.69762 7.02739 2.71762 6.68739 2.50762C6.34739 2.29762 6.48737 2.06762 6.13737 1.86762C5.79737 1.65762 5.63738 1.91762 5.27738 1.71762C4.92738 1.52762 4.93738 1.49762 4.58738 1.30762C4.23738 1.11762 4.37738 0.89762 4.05738 0.73762C3.89738 0.65762 3.82737 0.577621 3.76737 0.497621C3.73737 0.457621 3.69737 0.42762 3.66737 0.38762C3.62737 0.35762 3.56738 0.317622 3.49738 0.287622C3.15738 0.127622 2.81736 0.297621 2.62736 0.427621C2.53736 0.497621 2.40737 0.597621 2.32737 0.757621C2.24737 0.917621 2.21736 1.13762 2.37736 1.37762C2.44736 1.47762 2.50737 1.54762 2.57737 1.59762C2.64737 1.63762 2.71736 1.65762 2.78736 1.67762C2.92736 1.71762 3.05736 1.74762 3.22736 1.88762C3.56736 2.15762 3.67736 2.02762 4.00736 2.26762C4.33736 2.49762 4.35737 2.45762 4.69737 2.68762C5.02737 2.91762 5.04737 2.88762 5.38737 3.09762C5.72737 3.31762 5.50736 3.66762 5.84736 3.88762C6.18736 4.10762 6.31736 3.88762 6.65736 4.10762C6.99736 4.32762 6.90738 4.46762 7.24738 4.68762C7.58738 4.90762 7.64737 4.81762 7.98737 5.02762C8.32737 5.24762 8.24737 5.37762 8.57737 5.59762C8.91737 5.81762 9.00736 5.66762 9.34736 5.88762C9.68736 6.10762 9.59739 6.24762 9.93739 6.45762C10.2774 6.66762 10.4274 6.42762 10.7674 6.64762C10.9574 6.76762 10.9874 6.91762 11.0274 7.05762" fill="currentColor"/>
</svg>
