<svg width="894" height="57" viewBox="0 0 894 57" fill="none" xmlns="http://www.w3.org/2000/svg">
<g clip-path="url(#clip0_518_83)">
<path d="M376.72 49.2995C375.25 49.2995 374.07 49.0595 373.17 48.5795C372.27 48.0995 371.58 47.4995 371.1 46.7595C370.65 45.9995 370.34 45.2095 370.17 44.3895C370.03 43.5395 369.96 42.7795 369.96 42.1095C369.96 40.2195 370.17 38.3295 370.59 36.4495C371.04 34.5595 371.72 32.8295 372.62 31.2495C373.55 29.6695 374.74 28.4195 376.21 27.4895C377.7 26.5295 379.51 26.0495 381.62 26.0495C383.11 26.0495 384.3 26.2895 385.17 26.7695C386.07 27.2495 386.76 27.8695 387.24 28.6295C387.72 29.3595 388.03 30.1495 388.17 30.9995C388.34 31.8195 388.43 32.5595 388.43 33.2395C388.43 35.1295 388.21 37.0295 387.75 38.9495C387.33 40.8395 386.65 42.5695 385.72 44.1495C384.79 45.6995 383.58 46.9495 382.09 47.9095C380.63 48.8395 378.83 49.2995 376.72 49.2995ZM377.57 46.7595C378.47 46.7595 379.28 46.4895 379.98 45.9595C380.72 45.4195 381.35 44.7095 381.88 43.7995C382.41 42.8695 382.85 41.8295 383.19 40.6695C383.55 39.5095 383.82 38.3195 383.99 37.0795C384.16 35.8095 384.24 34.5695 384.24 33.3595C384.24 31.9795 383.99 30.8395 383.48 29.9395C383 29.0395 382.11 28.5895 380.82 28.5895C379.92 28.5895 379.1 28.8595 378.37 29.3895C377.64 29.9295 377 30.6395 376.47 31.5495C375.94 32.4495 375.48 33.4795 375.12 34.6295C374.78 35.7895 374.53 36.9995 374.36 38.2595C374.19 39.5295 374.1 40.7695 374.1 41.9795C374.1 43.3595 374.36 44.4995 374.86 45.3995C375.37 46.2995 376.27 46.7495 377.57 46.7495V46.7595ZM389.51 56.4795C388.41 56.4795 387.66 56.2695 387.27 55.8495C386.88 55.4295 386.65 54.9195 386.59 54.3295C387.44 54.2695 388.17 54.0895 388.79 53.7795C389.38 53.4695 389.88 52.9895 390.27 52.3395C390.69 51.7195 391.05 50.8995 391.33 49.8895C391.64 48.8995 391.92 47.7195 392.17 46.3395L395.47 28.1295H399.4L395.3 48.9595C395.02 50.3995 394.61 51.6795 394.07 52.8095C393.54 53.9695 392.89 54.8695 392.13 55.5095C391.37 56.1595 390.5 56.4795 389.51 56.4795ZM392.34 28.7995L392.72 26.8995H395.68L396.27 24.6595C396.64 23.1895 397.16 21.9695 397.83 20.9795C398.51 19.9895 399.38 19.2595 400.45 18.7795C401.52 18.2695 402.82 18.0195 404.34 18.0195C405.1 18.0195 405.8 18.0895 406.45 18.2295C407.13 18.3695 407.7 18.5795 408.18 18.8595C408.66 19.1395 409.02 19.5095 409.28 19.9595C409.56 20.3795 409.7 20.8895 409.7 21.4795C409.7 22.4095 409.39 23.1295 408.77 23.6395C408.18 24.1495 407.47 24.3995 406.66 24.3995C406.38 24.3995 406.08 24.3695 405.77 24.3195C405.46 24.2395 405.22 24.1095 405.05 23.9395C405.22 23.6295 405.36 23.3195 405.47 23.0095C405.58 22.6995 405.64 22.3495 405.64 21.9495C405.64 21.2995 405.47 20.7895 405.13 20.4295C404.82 20.0595 404.32 19.8795 403.61 19.8795C402.54 19.8795 401.73 20.2995 401.2 21.1495C400.69 21.9995 400.34 22.9495 400.14 24.0195L399.63 26.8895H403.35L403.1 28.7895H392.32L392.34 28.7995ZM423.97 49.2995C422.59 49.2995 421.46 48.9595 420.59 48.2895C419.74 47.5895 419.12 46.6395 418.73 45.4595C418.34 44.2795 418.14 42.9195 418.14 41.3995C418.14 39.3095 418.41 37.3595 418.94 35.5295C419.51 33.6695 420.3 32.0395 421.31 30.6295C422.32 29.1895 423.52 28.0795 424.9 27.2895C426.28 26.4695 427.79 26.0595 429.42 26.0595C430.77 26.0595 432.22 26.3595 433.77 26.9495L437.45 26.4895L433.98 44.5395C433.95 44.7895 433.91 45.0895 433.85 45.4295C433.79 45.7695 433.76 46.0595 433.76 46.3195C433.76 46.7095 433.85 47.0195 434.02 47.2495C434.21 47.4495 434.5 47.5595 434.86 47.5895C434.75 47.9795 434.56 48.3095 434.31 48.5595C434.06 48.8095 433.76 48.9995 433.42 49.1095C433.08 49.2495 432.7 49.3195 432.28 49.3195C431.54 49.3195 430.94 49.1095 430.46 48.6895C430.01 48.2995 429.77 47.6995 429.74 46.9195C429.01 47.6195 428.15 48.1995 427.16 48.6495C426.17 49.0995 425.1 49.3295 423.95 49.3295L423.97 49.2995ZM425.66 46.7995C426.79 46.7995 427.7 46.4295 428.41 45.6995C429.14 44.9395 429.72 44.0095 430.14 42.9095C430.56 41.7795 430.87 40.6995 431.07 39.6595L432.88 30.0195C432.29 29.5395 431.65 29.1895 430.98 28.9595C430.3 28.7095 429.68 28.5795 429.12 28.5795C428.24 28.5795 427.44 28.8095 426.71 29.2595C426.01 29.7095 425.37 30.3395 424.81 31.1595C424.27 31.9795 423.81 32.9495 423.41 34.0795C423.04 35.1795 422.76 36.3895 422.57 37.7095C422.4 39.0095 422.31 40.3595 422.31 41.7695C422.31 43.1795 422.54 44.3795 422.99 45.3595C423.47 46.3195 424.36 46.7995 425.65 46.7995H425.66Z" fill="#E7D001"/>
<path d="M29.1898 35.6796V24.7696H51.0098V48.7396C47.8298 51.4496 44.1598 53.3996 40.0198 54.5896C35.8798 55.7796 31.7698 56.3796 27.6798 56.3796C21.9498 56.3796 17.0098 55.2396 12.8698 52.9596C8.7298 50.6796 5.5598 47.4496 3.3498 43.2796C1.1498 39.1096 0.0498047 34.1596 0.0498047 28.4296C0.0498047 23.0196 1.2198 18.2096 3.5498 14.0196C5.8798 9.82957 9.1398 6.52957 13.2998 4.13957C17.4698 1.74957 22.2598 0.55957 27.6698 0.55957C32.0798 0.55957 36.1998 1.28957 40.0498 2.74957C43.8998 4.20957 47.1198 6.63957 49.7198 10.0396L40.5598 19.2796C38.9098 17.6396 37.1498 16.2796 35.2598 15.2196C33.3798 14.1596 31.1898 13.6296 28.6898 13.6296C25.6598 13.6296 23.0898 14.3096 20.9698 15.6596C18.8498 17.0196 17.2398 18.8196 16.1498 21.0796C15.0598 23.3396 14.5198 25.8696 14.5198 28.6796C14.5198 33.1896 15.8198 36.8196 18.4198 39.5496C21.0198 42.2796 24.4698 43.6496 28.7698 43.6496C30.5198 43.6496 32.1898 43.4296 33.7898 42.9696C35.3798 42.5196 36.9198 41.7896 38.4098 40.7796V35.6796H29.1698H29.1898Z" fill="#F5F5F5"/>
<path d="M59.6899 55.11V2H81.6699C87.3499 2 91.9199 3.47 95.3699 6.42C98.8199 9.37 100.55 13.71 100.55 19.44C100.55 22.89 99.7799 25.92 98.2399 28.52C96.6999 31.12 94.6599 33.19 92.1099 34.73L103.5 55.11H88.3699L79.3699 37.03H73.4799V55.11H59.6999H59.6899ZM73.4699 25.96H80.3199C82.1799 25.96 83.6899 25.39 84.8599 24.25C86.0299 23.11 86.6099 21.58 86.6099 19.67C86.6099 17.65 86.0499 16.06 84.9399 14.89C83.8299 13.72 82.2599 13.14 80.2399 13.14H73.4699V25.96Z" fill="#F5F5F5"/>
<path d="M134.06 56.3796C130.08 56.3796 126.4 55.6896 123.03 54.3096C119.66 52.9296 116.74 50.9796 114.27 48.4596C111.8 45.9396 109.88 42.9796 108.5 39.5796C107.12 36.1796 106.43 32.4696 106.43 28.4296C106.43 24.3896 107.12 20.6796 108.5 17.2796C109.88 13.8796 111.8 10.9396 114.27 8.43957C116.74 5.94957 119.66 4.00957 123.03 2.62957C126.4 1.24957 130.08 0.55957 134.06 0.55957C138.04 0.55957 141.72 1.24957 145.09 2.62957C148.46 4.00957 151.39 5.94957 153.89 8.43957C156.38 10.9396 158.31 13.8796 159.66 17.2796C161.01 20.6796 161.69 24.3996 161.69 28.4296C161.69 32.4596 161.01 36.1796 159.66 39.5796C158.31 42.9796 156.38 45.9396 153.89 48.4596C151.39 50.9796 148.46 52.9296 145.09 54.3096C141.72 55.6896 138.04 56.3796 134.06 56.3796ZM134.06 43.1596C136.87 43.1596 139.25 42.4996 141.19 41.1696C143.13 39.8396 144.6 38.0596 145.61 35.8396C146.62 33.6096 147.12 31.1396 147.12 28.4296C147.12 25.7196 146.62 23.2496 145.61 21.0196C144.6 18.7896 143.13 17.0096 141.19 15.6896C139.25 14.3596 136.88 13.6996 134.06 13.6996C131.24 13.6996 128.95 14.3596 127.01 15.6896C125.07 17.0196 123.59 18.7996 122.55 21.0196C121.51 23.2496 121 25.7196 121 28.4296C121 31.1396 121.52 33.6096 122.55 35.8396C123.59 38.0696 125.07 39.8496 127.01 41.1696C128.95 42.4996 131.3 43.1596 134.06 43.1596Z" fill="#F5F5F5"/>
<path d="M177.06 55.11L164.16 2H179.05L185.9 37.59L194.26 3.27H207.08L215.52 37.59L222.29 2H236.7L223.48 55.11H208.75L200.39 21.51L192.03 55.11H177.06Z" fill="#F5F5F5"/>
<path d="M255.42 55.11V14.34H239.1V2H285.84V14.34H269.68V55.11H255.43H255.42Z" fill="#F5F5F5"/>
<path d="M292.2 55.11V2H306.29V21.43H325.88V2H339.97V55.11H325.88V34.33H306.29V55.11H292.2Z" fill="#F5F5F5"/>
<path d="M456.65 55.11L459.12 2H472.58L485.48 25.17L498.14 2H511.68L514.15 55.11H499.9L498.63 23.98L489.31 42.13H481.59L471.24 23.98L470.2 55.11H456.66H456.65Z" fill="#F5F5F5"/>
<path d="M548.14 56.3796C544.16 56.3796 540.48 55.6896 537.11 54.3096C533.74 52.9296 530.82 50.9796 528.35 48.4596C525.88 45.9396 523.96 42.9796 522.58 39.5796C521.2 36.1796 520.51 32.4696 520.51 28.4296C520.51 24.3896 521.2 20.6796 522.58 17.2796C523.96 13.8796 525.88 10.9396 528.35 8.43957C530.82 5.94957 533.74 4.00957 537.11 2.62957C540.48 1.24957 544.16 0.55957 548.14 0.55957C552.12 0.55957 555.8 1.24957 559.17 2.62957C562.54 4.00957 565.47 5.94957 567.97 8.43957C570.46 10.9396 572.39 13.8796 573.74 17.2796C575.09 20.6796 575.77 24.3996 575.77 28.4296C575.77 32.4596 575.09 36.1796 573.74 39.5796C572.39 42.9796 570.46 45.9396 567.97 48.4596C565.47 50.9796 562.54 52.9296 559.17 54.3096C555.8 55.6896 552.12 56.3796 548.14 56.3796ZM548.14 43.1596C550.95 43.1596 553.33 42.4996 555.27 41.1696C557.21 39.8396 558.68 38.0596 559.69 35.8396C560.7 33.6096 561.2 31.1396 561.2 28.4296C561.2 25.7196 560.7 23.2496 559.69 21.0196C558.68 18.7896 557.21 17.0096 555.27 15.6896C553.33 14.3596 550.96 13.6996 548.14 13.6996C545.32 13.6996 543.03 14.3596 541.09 15.6896C539.15 17.0196 537.67 18.7996 536.63 21.0196C535.59 23.2496 535.08 25.7196 535.08 28.4296C535.08 31.1396 535.6 33.6096 536.63 35.8396C537.67 38.0696 539.15 39.8496 541.09 41.1696C543.03 42.4996 545.38 43.1596 548.14 43.1596Z" fill="#F5F5F5"/>
<path d="M594.89 55.11L575.62 2H590.99L602.93 38.95L614.08 2H629.13L609.78 55.11H594.89Z" fill="#F5F5F5"/>
<path d="M634.22 55.11V2H672.44V14.18H648.31V22.38H668.14V33.85H648.31V42.93H674.11V55.11H634.22Z" fill="#F5F5F5"/>
<path d="M680.33 55.11L682.8 2H696.26L709.16 25.17L721.82 2H735.36L737.83 55.11H723.58L722.31 23.98L712.99 42.13H705.27L694.92 23.98L693.88 55.11H680.34H680.33Z" fill="#F5F5F5"/>
<path d="M746.26 55.11V2H784.48V14.18H760.35V22.38H780.18V33.85H760.35V42.93H786.15V55.11H746.26Z" fill="#F5F5F5"/>
<path d="M793.48 55.11V2H806.3L826.68 31.62V2H840.62V55.11H828.6L807.42 24.61V55.11H793.48Z" fill="#F5F5F5"/>
<path d="M863.31 55.11V14.34H846.99V2H893.73V14.34H877.57V55.11H863.32H863.31Z" fill="#F5F5F5"/>
</g>
<defs>
<clipPath id="clip0_518_83">
<rect width="894" height="57" fill="white"/>
</clipPath>
</defs>
</svg>
