<svg width="125" height="33" viewBox="0 0 125 33" fill="none" xmlns="http://www.w3.org/2000/svg">
<g clip-path="url(#clip0_200_6)">
<path d="M9.3649 5.34423C9.28997 5.06654 9.17978 4.82191 9.03433 4.61034C8.88887 4.39436 8.71036 4.21145 8.49879 4.06159C8.28721 3.91171 8.04479 3.79932 7.77152 3.7244C7.49824 3.64505 7.19851 3.60538 6.87234 3.60538C6.21558 3.60538 5.647 3.76405 5.16656 4.08142C4.69052 4.39876 4.32247 4.86158 4.06242 5.46985C3.80237 6.0737 3.67234 6.80758 3.67234 7.6715C3.67234 8.53982 3.79797 9.28031 4.0492 9.89299C4.30044 10.5057 4.66407 10.9729 5.1401 11.2946C5.61614 11.6164 6.19355 11.7773 6.87234 11.7773C7.47178 11.7773 7.97868 11.6803 8.393 11.4864C8.81173 11.288 9.1291 11.0081 9.34507 10.6467C9.56104 10.2853 9.66904 9.85993 9.66904 9.37067L10.2773 9.44339H6.98473V7.05662H12.8228V8.84835C12.8228 10.0605 12.5649 11.0985 12.0492 11.9624C11.5379 12.8263 10.8327 13.4897 9.93349 13.9525C9.03874 14.4153 8.00952 14.6467 6.84589 14.6467C5.55444 14.6467 4.41944 14.3668 3.44093 13.807C2.46242 13.2472 1.69988 12.4494 1.15333 11.4136C0.606775 10.3734 0.333496 9.13926 0.333496 7.71117C0.333496 6.60042 0.498785 5.61531 0.829365 4.7558C1.15994 3.89188 1.62055 3.1602 2.21118 2.56076C2.80622 1.9613 3.49382 1.50731 4.27399 1.19876C5.05857 0.890229 5.90264 0.735962 6.80623 0.735962C7.5908 0.735962 8.32028 0.848354 8.99466 1.07315C9.67344 1.29794 10.2729 1.6153 10.793 2.02522C11.3175 2.43513 11.7429 2.92219 12.069 3.48638C12.3952 4.05056 12.598 4.66984 12.6773 5.34423H9.3649ZM16.6134 14.4616V0.921089H22.2068C23.2207 0.921089 24.0956 1.104 24.8317 1.46984C25.5722 1.83127 26.143 2.35138 26.5441 3.03017C26.9451 3.70455 27.1458 4.50456 27.1458 5.43018C27.1458 6.36902 26.9408 7.16682 26.5309 7.82356C26.121 8.47591 25.5392 8.97398 24.7854 9.31778C24.0317 9.65717 23.1391 9.82686 22.1077 9.82686H18.5705V7.24835H21.4995C21.9932 7.24835 22.4053 7.18445 22.7359 7.05662C23.0709 6.9244 23.3242 6.72604 23.4961 6.46158C23.668 6.1927 23.754 5.8489 23.754 5.43018C23.754 5.01144 23.668 4.66544 23.4961 4.39215C23.3242 4.11448 23.0709 3.9073 22.7359 3.77068C22.4008 3.62963 21.9887 3.5591 21.4995 3.5591H19.8862V14.4616H16.6134ZM24.2367 8.27315L27.6086 14.4616H24.0382L20.7326 8.27315H24.2367ZM43.5828 7.69133C43.5828 9.18114 43.2963 10.4439 42.7233 11.4797C42.1503 12.5155 41.3745 13.3023 40.396 13.84C39.4218 14.3778 38.3288 14.6467 37.1166 14.6467C35.9002 14.6467 34.8048 14.3756 33.8306 13.8335C32.8566 13.2913 32.083 12.5045 31.51 11.4732C30.9414 10.4373 30.6571 9.17673 30.6571 7.69133C30.6571 6.20153 30.9414 4.93872 31.51 3.9029C32.083 2.86709 32.8566 2.08032 33.8306 1.54258C34.8048 1.00482 35.9002 0.735962 37.1166 0.735962C38.3288 0.735962 39.4218 1.00482 40.396 1.54258C41.3745 2.08032 42.1503 2.86709 42.7233 3.9029C43.2963 4.93872 43.5828 6.20153 43.5828 7.69133ZM40.2373 7.69133C40.2373 6.80979 40.1116 6.06489 39.8604 5.45662C39.6136 4.84836 39.2566 4.38775 38.7894 4.07481C38.3266 3.76185 37.769 3.60538 37.1166 3.60538C36.4687 3.60538 35.9112 3.76185 35.4439 4.07481C34.9767 4.38775 34.6174 4.84836 34.3662 5.45662C34.1193 6.06489 33.996 6.80979 33.996 7.69133C33.996 8.57288 34.1193 9.31778 34.3662 9.92604C34.6174 10.5343 34.9767 10.9949 35.4439 11.3079C35.9112 11.6208 36.4687 11.7773 37.1166 11.7773C37.769 11.7773 38.3266 11.6208 38.7894 11.3079C39.2566 10.9949 39.6136 10.5343 39.8604 9.92604C40.1116 9.31778 40.2373 8.57288 40.2373 7.69133ZM49.9288 14.4616L45.9884 0.921089H49.6049L51.6479 9.79382H51.7602L54.0942 0.921089H57.043L59.3768 9.81364H59.4893L61.5388 0.921089H65.1487L61.2149 14.4616H58.0611L55.6215 6.25002H55.5157L53.0759 14.4616H49.9288ZM67.9196 3.57894V0.921089H79.3642V3.57894H75.2584V14.4616H72.032V3.57894H67.9196ZM82.8244 14.4616V0.921089H86.0971V6.3558H91.4326V0.921089H94.6987V14.4616H91.4326V9.02026H86.0971V14.4616H82.8244ZM0.478951 18.3756H4.53185L7.96987 26.759H8.12854L11.5666 18.3756H15.6194V31.9161H12.4327V23.5988H12.3203L9.06738 31.8302H7.03101L3.77812 23.5525H3.66573V31.9161H0.478951V18.3756ZM32.3027 25.1459C32.3027 26.6357 32.0163 27.8985 31.4433 28.9343C30.8703 29.9701 30.0946 30.7568 29.116 31.2946C28.1418 31.8323 27.0488 32.1012 25.8366 32.1012C24.62 32.1012 23.5248 31.8302 22.5506 31.2881C21.5766 30.7458 20.803 29.959 20.23 28.9278C19.6614 27.8918 19.3772 26.6312 19.3772 25.1459C19.3772 23.656 19.6614 22.3932 20.23 21.3574C20.803 20.3217 21.5766 19.5349 22.5506 18.9971C23.5248 18.4594 24.62 18.1905 25.8366 18.1905C27.0488 18.1905 28.1418 18.4594 29.116 18.9971C30.0946 19.5349 30.8703 20.3217 31.4433 21.3574C32.0163 22.3932 32.3027 23.656 32.3027 25.1459ZM28.9573 25.1459C28.9573 24.2644 28.8316 23.5195 28.5804 22.9111C28.3336 22.3029 27.9766 21.8423 27.5094 21.5294C27.0466 21.2164 26.489 21.0599 25.8366 21.0599C25.1887 21.0599 24.6311 21.2164 24.1639 21.5294C23.6967 21.8423 23.3374 22.3029 23.0862 22.9111C22.8394 23.5195 22.716 24.2644 22.716 25.1459C22.716 26.0273 22.8394 26.7724 23.0862 27.3806C23.3374 27.9888 23.6967 28.4494 24.1639 28.7624C24.6311 29.0753 25.1887 29.2318 25.8366 29.2318C26.489 29.2318 27.0466 29.0753 27.5094 28.7624C27.9766 28.4494 28.3336 27.9888 28.5804 27.3806C28.8316 26.7724 28.9573 26.0273 28.9573 25.1459ZM38.3497 18.3756L41.3778 28.293H41.4901L44.5182 18.3756H48.181L43.6124 31.9161H39.2555L34.6869 18.3756H38.3497ZM51.5008 31.9161V18.3756H60.9421V21.0335H54.7734V23.8104H60.4594V26.4748H54.7734V29.2582H60.9421V31.9161H51.5008ZM64.8535 18.3756H68.9063L72.3443 26.759H72.5031L75.9411 18.3756H79.9939V31.9161H76.8073V23.5988H76.6948L73.4419 31.8302H71.4055L68.1526 23.5525H68.0403V31.9161H64.8535V18.3756ZM83.8971 31.9161V18.3756H93.3385V21.0335H87.1698V23.8104H92.8558V26.4748H87.1698V29.2582H93.3385V31.9161H83.8971ZM108.774 18.3756V31.9161H105.997L100.609 24.1013H100.523V31.9161H97.2499V18.3756H100.066L105.395 26.1772H105.508V18.3756H108.774ZM112.251 21.0335V18.3756H123.695V21.0335H119.589V31.9161H116.363V21.0335H112.251Z" fill="currentColor"/>
<path d="M102.847 14.7099C102.417 14.7099 102.069 14.6396 101.805 14.4989C101.54 14.3581 101.337 14.1803 101.196 13.9651C101.064 13.7417 100.973 13.5101 100.923 13.2701C100.882 13.0218 100.861 12.7984 100.861 12.5998C100.861 12.0455 100.923 11.4909 101.048 10.9366C101.18 10.3822 101.378 9.87329 101.643 9.4099C101.916 8.94651 102.268 8.57828 102.698 8.30522C103.137 8.02388 103.666 7.88321 104.287 7.88321C104.726 7.88321 105.073 7.95354 105.33 8.09421C105.595 8.23489 105.797 8.41693 105.938 8.64035C106.079 8.85549 106.17 9.08718 106.211 9.33542C106.261 9.5754 106.285 9.79467 106.285 9.99327C106.285 10.5477 106.219 11.1062 106.087 11.6689C105.963 12.2233 105.764 12.7322 105.491 13.1956C105.218 13.6507 104.862 14.019 104.424 14.3003C103.993 14.5733 103.468 14.7099 102.847 14.7099ZM103.096 13.9651C103.36 13.9651 103.596 13.8865 103.803 13.7293C104.018 13.5721 104.204 13.3611 104.362 13.0963C104.519 12.8232 104.647 12.5171 104.746 12.1778C104.854 11.8385 104.933 11.4869 104.982 11.1228C105.032 10.7504 105.057 10.3863 105.057 10.0305C105.057 9.62505 104.982 9.28992 104.833 9.02512C104.692 8.76032 104.432 8.62793 104.051 8.62793C103.786 8.62793 103.547 8.70655 103.331 8.86376C103.116 9.02098 102.93 9.23199 102.773 9.49678C102.616 9.76158 102.483 10.0636 102.376 10.4029C102.276 10.7421 102.202 11.0979 102.152 11.4703C102.103 11.8427 102.078 12.2068 102.078 12.5626C102.078 12.968 102.152 13.3031 102.301 13.568C102.45 13.8328 102.715 13.9651 103.096 13.9651ZM106.603 16.8199C106.28 16.8199 106.061 16.7579 105.945 16.6338C105.829 16.5096 105.763 16.3607 105.746 16.1869C105.994 16.1703 106.21 16.1166 106.392 16.0256C106.565 15.9345 106.71 15.7939 106.826 15.6035C106.95 15.4216 107.054 15.1815 107.136 14.8836C107.227 14.594 107.31 14.2464 107.385 13.841L108.353 8.4914H109.507L108.303 14.6106C108.22 15.0326 108.1 15.4091 107.943 15.7401C107.786 16.0794 107.596 16.3441 107.372 16.5345C107.149 16.7248 106.892 16.8199 106.603 16.8199ZM107.434 8.68999L107.546 8.13145H108.415L108.588 7.47361C108.696 7.04332 108.849 6.68337 109.048 6.39375C109.246 6.10413 109.503 5.889 109.817 5.74832C110.132 5.59938 110.512 5.5249 110.959 5.5249C111.183 5.5249 111.39 5.54558 111.58 5.58696C111.778 5.62834 111.948 5.6904 112.089 5.77315C112.229 5.85589 112.337 5.96347 112.411 6.09586C112.494 6.21998 112.536 6.36893 112.536 6.5427C112.536 6.81576 112.445 7.02677 112.262 7.17571C112.089 7.32466 111.882 7.39913 111.642 7.39913C111.559 7.39913 111.472 7.39086 111.381 7.37431C111.29 7.34948 111.22 7.31225 111.17 7.2626C111.22 7.17157 111.261 7.08056 111.294 6.98953C111.328 6.89851 111.344 6.79508 111.344 6.67923C111.344 6.48891 111.294 6.33996 111.195 6.23239C111.104 6.12483 110.955 6.07104 110.748 6.07104C110.434 6.07104 110.198 6.19516 110.041 6.4434C109.892 6.69164 109.788 6.97298 109.73 7.28742L109.581 8.13145H110.674L110.599 8.68999H107.434ZM114.45 14.7099C114.045 14.7099 113.714 14.6106 113.457 14.412C113.209 14.2052 113.027 13.9279 112.911 13.5804C112.795 13.2328 112.737 12.8356 112.737 12.3888C112.737 11.7764 112.816 11.2014 112.973 10.6635C113.138 10.1174 113.37 9.63746 113.668 9.22371C113.966 8.8017 114.318 8.47485 114.723 8.24316C115.129 8.00318 115.571 7.88321 116.051 7.88321C116.448 7.88321 116.875 7.97009 117.33 8.14386L118.41 8.00733L117.392 13.3073C117.383 13.3818 117.371 13.4687 117.355 13.568C117.338 13.6673 117.33 13.7541 117.33 13.8286C117.33 13.9445 117.355 14.0354 117.404 14.1017C117.462 14.1596 117.545 14.1928 117.652 14.201C117.619 14.3169 117.566 14.412 117.491 14.4865C117.417 14.5609 117.33 14.6148 117.23 14.6478C117.131 14.6892 117.019 14.7099 116.895 14.7099C116.68 14.7099 116.502 14.6478 116.362 14.5237C116.229 14.4078 116.159 14.234 116.151 14.0024C115.935 14.2092 115.683 14.3789 115.393 14.5113C115.104 14.6436 114.789 14.7099 114.45 14.7099ZM114.947 13.9776C115.278 13.9776 115.546 13.87 115.753 13.6548C115.968 13.4314 116.138 13.1584 116.262 12.8356C116.386 12.5047 116.477 12.186 116.535 11.8799L117.069 9.04995C116.895 8.90927 116.709 8.80585 116.511 8.73964C116.312 8.66517 116.13 8.62793 115.964 8.62793C115.708 8.62793 115.472 8.69414 115.257 8.82653C115.05 8.95892 114.864 9.1451 114.698 9.38507C114.541 9.62505 114.404 9.91052 114.289 10.2415C114.181 10.5642 114.098 10.92 114.041 11.309C113.991 11.6895 113.966 12.0867 113.966 12.5005C113.966 12.9143 114.032 13.2659 114.165 13.5555C114.305 13.8368 114.566 13.9776 114.947 13.9776Z" fill="currentColor"/>
</g>
<defs>
<clipPath id="clip0_200_6">
<rect width="123.636" height="32" fill="currentColor" transform="translate(0.181641 0.207031)"/>
</clipPath>
</defs>
</svg>
