<svg width="438" height="129" viewBox="0 0 438 129" fill="none" xmlns="http://www.w3.org/2000/svg">
<g clip-path="url(#clip0_518_65)">
<path d="M364.3 55.5504C362.54 55.5504 361.13 55.2604 360.05 54.6904C358.97 54.1204 358.15 53.3904 357.57 52.5104C357.03 51.6004 356.66 50.6604 356.46 49.6804C356.29 48.6704 356.21 47.7604 356.21 46.9504C356.21 44.6904 356.46 42.4303 356.97 40.1703C357.51 37.9103 358.32 35.8404 359.4 33.9504C360.51 32.0604 361.94 30.5604 363.7 29.4504C365.49 28.3004 367.65 27.7304 370.17 27.7304C371.96 27.7304 373.38 28.0204 374.42 28.5904C375.5 29.1604 376.33 29.9104 376.9 30.8204C377.47 31.7004 377.85 32.6404 378.01 33.6504C378.21 34.6304 378.32 35.5204 378.32 36.3304C378.32 38.5904 378.05 40.8704 377.51 43.1604C377 45.4204 376.19 47.4903 375.08 49.3803C373.97 51.2303 372.52 52.7403 370.73 53.8803C368.98 54.9903 366.83 55.5504 364.31 55.5504H364.3ZM365.31 52.5104C366.39 52.5104 367.35 52.1904 368.19 51.5504C369.07 50.9104 369.83 50.0504 370.47 48.9704C371.11 47.8604 371.63 46.6104 372.04 45.2304C372.48 43.8504 372.8 42.4104 373 40.9304C373.2 39.4104 373.3 37.9304 373.3 36.4804C373.3 34.8304 373 33.4604 372.39 32.3804C371.82 31.3004 370.75 30.7603 369.2 30.7603C368.12 30.7603 367.14 31.0804 366.27 31.7204C365.39 32.3604 364.63 33.2204 363.99 34.3004C363.35 35.3804 362.81 36.6104 362.37 37.9904C361.97 39.3704 361.66 40.8204 361.46 42.3404C361.26 43.8604 361.15 45.3404 361.15 46.7904C361.15 48.4404 361.46 49.8104 362.06 50.8904C362.67 51.9704 363.75 52.5104 365.3 52.5104H365.31ZM379.61 64.1504C378.29 64.1504 377.4 63.9004 376.93 63.3904C376.46 62.8804 376.19 62.2804 376.12 61.5704C377.13 61.5004 378.01 61.2804 378.75 60.9104C379.46 60.5404 380.05 59.9704 380.52 59.1904C381.03 58.4504 381.45 57.4704 381.79 56.2604C382.16 55.0804 382.5 53.6604 382.8 52.0104L386.75 30.2104H391.45L386.54 55.1504C386.21 56.8704 385.72 58.4004 385.07 59.7504C384.43 61.1304 383.66 62.2103 382.74 62.9903C381.83 63.7703 380.79 64.1504 379.61 64.1504ZM383 31.0103L383.45 28.7304H386.99L387.7 26.0504C388.14 24.3004 388.76 22.8304 389.57 21.6504C390.38 20.4704 391.42 19.5904 392.71 19.0204C393.99 18.4104 395.54 18.1104 397.36 18.1104C398.27 18.1104 399.11 18.1904 399.89 18.3604C400.7 18.5304 401.39 18.7803 401.96 19.1203C402.53 19.4603 402.97 19.9003 403.28 20.4403C403.62 20.9503 403.79 21.5503 403.79 22.2603C403.79 23.3703 403.42 24.2304 402.68 24.8404C401.97 25.4504 401.13 25.7504 400.15 25.7504C399.82 25.7504 399.46 25.7204 399.09 25.6504C398.72 25.5504 398.43 25.4003 398.23 25.1903C398.43 24.8203 398.6 24.4504 398.74 24.0804C398.87 23.7104 398.94 23.2904 398.94 22.8204C398.94 22.0404 398.74 21.4404 398.33 21.0004C397.96 20.5604 397.36 20.3404 396.51 20.3404C395.23 20.3404 394.26 20.8504 393.62 21.8604C393.01 22.8704 392.59 24.0204 392.36 25.3004L391.75 28.7404H396.2L395.9 31.0204H383V31.0103ZM417.86 55.5504C416.21 55.5504 414.86 55.1503 413.82 54.3403C412.81 53.5003 412.06 52.3703 411.59 50.9503C411.12 49.5303 410.88 47.9104 410.88 46.0904C410.88 43.5904 411.2 41.2504 411.84 39.0604C412.52 36.8304 413.46 34.8803 414.68 33.1903C415.89 31.4703 417.33 30.1403 418.98 29.1903C420.63 28.2103 422.44 27.7204 424.39 27.7204C426.01 27.7204 427.74 28.0703 429.6 28.7803L434 28.2204L429.85 49.8204C429.82 50.1204 429.76 50.4803 429.7 50.8803C429.63 51.2803 429.6 51.6404 429.6 51.9404C429.6 52.4104 429.7 52.7804 429.91 53.0504C430.14 53.2904 430.48 53.4203 430.92 53.4503C430.79 53.9203 430.57 54.3104 430.26 54.6104C429.96 54.9104 429.6 55.1303 429.2 55.2703C428.79 55.4403 428.34 55.5203 427.83 55.5203C426.95 55.5203 426.23 55.2704 425.65 54.7604C425.11 54.2904 424.82 53.5804 424.79 52.6404C423.91 53.4804 422.88 54.1704 421.7 54.7104C420.52 55.2504 419.24 55.5203 417.85 55.5203L417.86 55.5504ZM419.89 52.5603C421.24 52.5603 422.34 52.1203 423.18 51.2403C424.06 50.3303 424.75 49.2204 425.25 47.9004C425.76 46.5504 426.13 45.2504 426.36 44.0004L428.53 32.4704C427.82 31.9004 427.06 31.4804 426.26 31.2104C425.45 30.9104 424.71 30.7504 424.03 30.7504C422.98 30.7504 422.02 31.0204 421.14 31.5604C420.3 32.1004 419.54 32.8604 418.87 33.8404C418.23 34.8204 417.67 35.9804 417.2 37.3304C416.76 38.6504 416.43 40.1004 416.19 41.6804C415.99 43.2304 415.88 44.8504 415.88 46.5404C415.88 48.2304 416.15 49.6603 416.69 50.8403C417.26 51.9903 418.32 52.5603 419.88 52.5603H419.89Z" fill="#E7D001"/>
<path d="M30.4398 35.3402V24.4302H52.2598V48.4002C49.0798 51.1102 45.4098 53.0602 41.2698 54.2502C37.1298 55.4402 33.0198 56.0402 28.9298 56.0402C23.1998 56.0402 18.2598 54.9002 14.1198 52.6202C9.9798 50.3402 6.80981 47.1102 4.59981 42.9502C2.39981 38.7802 1.2998 33.8302 1.2998 28.1002C1.2998 22.6902 2.4698 17.8802 4.7998 13.6902C7.1298 9.50024 10.3898 6.20023 14.5498 3.82023C18.7198 1.43023 23.5098 0.240234 28.9198 0.240234C33.3298 0.240234 37.4498 0.970235 41.2998 2.43023C45.1498 3.89023 48.3698 6.32023 50.9698 9.72023L41.8098 18.9602C40.1598 17.3202 38.3998 15.9602 36.5098 14.9002C34.6298 13.8402 32.4398 13.3102 29.9398 13.3102C26.9098 13.3102 24.3398 13.9902 22.2198 15.3402C20.0998 16.6902 18.4898 18.5002 17.3998 20.7602C16.3098 23.0202 15.7698 25.5502 15.7698 28.3602C15.7698 32.8702 17.0698 36.5002 19.6698 39.2302C22.2698 41.9602 25.7198 43.3302 30.0198 43.3302C31.7698 43.3302 33.4398 43.1102 35.0398 42.6502C36.6298 42.2002 38.1698 41.4702 39.6598 40.4602V35.3602H30.4198L30.4398 35.3402Z" fill="#F5F5F5"/>
<path d="M60.9399 54.7702V1.66016H82.9199C88.5999 1.66016 93.1699 3.13016 96.6199 6.08016C100.07 9.03016 101.8 13.3702 101.8 19.1002C101.8 22.5502 101.03 25.5802 99.4899 28.1802C97.9499 30.7802 95.9099 32.8502 93.3599 34.3902L104.75 54.7702H89.6199L80.6199 36.6902H74.7299V54.7702H60.9499H60.9399ZM74.7099 25.6302H81.5599C83.4199 25.6302 84.9299 25.0602 86.0999 23.9202C87.2699 22.7802 87.8499 21.2502 87.8499 19.3402C87.8499 17.3202 87.2899 15.7302 86.1799 14.5602C85.0699 13.3902 83.4999 12.8102 81.4799 12.8102H74.7099V25.6302Z" fill="#F5F5F5"/>
<path d="M135.31 56.0505C131.33 56.0505 127.65 55.3605 124.28 53.9805C120.91 52.6005 117.99 50.6505 115.52 48.1305C113.05 45.6105 111.13 42.6505 109.75 39.2505C108.37 35.8505 107.68 32.1405 107.68 28.1005C107.68 24.0605 108.37 20.3505 109.75 16.9505C111.13 13.5505 113.05 10.6105 115.52 8.11047C117.99 5.62047 120.91 3.68047 124.28 2.30047C127.65 0.920468 131.33 0.230469 135.31 0.230469C139.29 0.230469 142.97 0.920468 146.34 2.30047C149.71 3.68047 152.64 5.62047 155.14 8.11047C157.63 10.6105 159.56 13.5505 160.91 16.9505C162.26 20.3505 162.94 24.0605 162.94 28.1005C162.94 32.1405 162.26 35.8505 160.91 39.2505C159.56 42.6505 157.63 45.6105 155.14 48.1305C152.64 50.6505 149.71 52.6005 146.34 53.9805C142.97 55.3605 139.29 56.0505 135.31 56.0505ZM135.31 42.8305C138.12 42.8305 140.5 42.1705 142.44 40.8405C144.38 39.5105 145.85 37.7305 146.86 35.5105C147.87 33.2805 148.37 30.8105 148.37 28.1005C148.37 25.3905 147.87 22.9205 146.86 20.6905C145.85 18.4605 144.38 16.6805 142.44 15.3605C140.5 14.0305 138.13 13.3705 135.31 13.3705C132.49 13.3705 130.2 14.0305 128.26 15.3605C126.32 16.6905 124.84 18.4705 123.8 20.6905C122.76 22.9105 122.25 25.3905 122.25 28.1005C122.25 30.8105 122.77 33.2805 123.8 35.5105C124.84 37.7405 126.32 39.5205 128.26 40.8405C130.2 42.1705 132.55 42.8305 135.31 42.8305Z" fill="#F5F5F5"/>
<path d="M178.31 54.7702L165.41 1.66016H180.3L187.15 37.2502L195.51 2.93016H208.33L216.77 37.2502L223.54 1.66016H237.95L224.73 54.7702H210L201.64 21.1702L193.28 54.7702H178.31Z" fill="#F5F5F5"/>
<path d="M256.66 54.7702V14.0002H240.34V1.66016H287.08V14.0002H270.92V54.7702H256.67H256.66Z" fill="#F5F5F5"/>
<path d="M293.45 54.7702V1.66016H307.54V21.0902H327.13V1.66016H341.22V54.7702H327.13V33.9902H307.54V54.7702H293.45Z" fill="#F5F5F5"/>
<path d="M0.899902 126.77L3.3699 73.6602H16.8299L29.7299 96.8302L42.3899 73.6602H55.9299L58.3999 126.77H44.1499L42.8799 95.6402L33.5599 113.8H25.8399L15.4899 95.6402L14.4499 126.77H0.909903H0.899902Z" fill="#F5F5F5"/>
<path d="M92.3898 128.05C88.4098 128.05 84.7298 127.36 81.3598 125.98C77.9898 124.6 75.0698 122.65 72.5998 120.13C70.1298 117.61 68.2098 114.65 66.8298 111.25C65.4498 107.85 64.7598 104.14 64.7598 100.1C64.7598 96.0605 65.4498 92.3505 66.8298 88.9505C68.2098 85.5505 70.1298 82.6105 72.5998 80.1105C75.0698 77.6205 77.9898 75.6805 81.3598 74.3005C84.7298 72.9205 88.4098 72.2305 92.3898 72.2305C96.3698 72.2305 100.05 72.9205 103.42 74.3005C106.79 75.6805 109.72 77.6205 112.22 80.1105C114.71 82.6105 116.64 85.5505 117.99 88.9505C119.34 92.3505 120.02 96.0605 120.02 100.1C120.02 104.14 119.34 107.85 117.99 111.25C116.64 114.65 114.71 117.61 112.22 120.13C109.72 122.65 106.79 124.6 103.42 125.98C100.05 127.36 96.3698 128.05 92.3898 128.05ZM92.3898 114.83C95.1998 114.83 97.5798 114.17 99.5198 112.84C101.46 111.51 102.93 109.73 103.94 107.51C104.95 105.28 105.45 102.81 105.45 100.1C105.45 97.3905 104.95 94.9205 103.94 92.6905C102.93 90.4605 101.46 88.6805 99.5198 87.3605C97.5798 86.0305 95.2098 85.3705 92.3898 85.3705C89.5698 85.3705 87.2798 86.0305 85.3398 87.3605C83.3998 88.6905 81.9198 90.4705 80.8798 92.6905C79.8398 94.9105 79.3298 97.3905 79.3298 100.1C79.3298 102.81 79.8498 105.28 80.8798 107.51C81.9198 109.74 83.3998 111.52 85.3398 112.84C87.2798 114.17 89.6298 114.83 92.3898 114.83Z" fill="#F5F5F5"/>
<path d="M139.14 126.77L119.87 73.6602H135.24L147.18 110.61L158.33 73.6602H173.38L154.03 126.77H139.14Z" fill="#F5F5F5"/>
<path d="M178.47 126.77V73.6602H216.69V85.8401H192.56V94.0402H212.39V105.51H192.56V114.59H218.36V126.77H178.47Z" fill="#F5F5F5"/>
<path d="M224.58 126.77L227.05 73.6602H240.51L253.41 96.8302L266.07 73.6602H279.61L282.08 126.77H267.83L266.56 95.6402L257.24 113.8H249.52L239.17 95.6402L238.13 126.77H224.59H224.58Z" fill="#F5F5F5"/>
<path d="M290.51 126.77V73.6602H328.73V85.8401H304.6V94.0402H324.43V105.51H304.6V114.59H330.4V126.77H290.51Z" fill="#F5F5F5"/>
<path d="M337.73 126.77V73.6602H350.55L370.93 103.28V73.6602H384.87V126.77H372.85L351.67 96.2701V126.77H337.73Z" fill="#F5F5F5"/>
<path d="M407.56 126.77V86.0002H391.24V73.6602H437.98V86.0002H421.82V126.77H407.57H407.56Z" fill="#F5F5F5"/>
</g>
<defs>
<clipPath id="clip0_518_65">
<rect width="438" height="129" fill="white"/>
</clipPath>
</defs>
</svg>
