<svg width="48" height="48" viewBox="0 0 48 48" fill="none" xmlns="http://www.w3.org/2000/svg">
<rect x="10.5894" y="12.1747" width="27" height="11" rx="1.5" stroke="currentColor"/>
<circle cx="18.0894" cy="17.6747" r="2" fill="currentColor"/>
<circle cx="24.0894" cy="17.6747" r="2" fill="currentColor"/>
<circle cx="30.0894" cy="17.6747" r="2" fill="currentColor"/>
<path d="M9.57551 37.6747H8.30988L10.6142 31.1292H12.078L14.3855 37.6747H13.1199L11.3717 32.4716H11.3205L9.57551 37.6747ZM9.61705 35.1083H13.0688V36.0607H9.61705V35.1083ZM15.2476 37.6747V31.1292H17.7533C18.2263 31.1292 18.6195 31.2038 18.9327 31.3529C19.248 31.5 19.4834 31.7013 19.639 31.957C19.7967 32.2127 19.8755 32.5025 19.8755 32.8263C19.8755 33.0927 19.8244 33.3206 19.7221 33.5103C19.6198 33.6978 19.4824 33.8501 19.3098 33.9673C19.1372 34.0845 18.9444 34.1686 18.7313 34.2198V34.2837C18.9636 34.2965 19.1862 34.3679 19.3993 34.4978C19.6145 34.6257 19.7903 34.8068 19.9266 35.0412C20.063 35.2755 20.1312 35.5589 20.1312 35.8913C20.1312 36.2301 20.0491 36.5348 19.8851 36.8054C19.721 37.0738 19.4739 37.2858 19.1436 37.4414C18.8133 37.5969 18.3979 37.6747 17.8972 37.6747H15.2476ZM16.4334 36.6839H17.7086C18.139 36.6839 18.449 36.6019 18.6386 36.4378C18.8304 36.2716 18.9263 36.0586 18.9263 35.7986C18.9263 35.6047 18.8783 35.43 18.7824 35.2745C18.6866 35.1168 18.5502 34.9932 18.3734 34.9037C18.1965 34.8121 17.9856 34.7663 17.7405 34.7663H16.4334V36.6839ZM16.4334 33.913H17.6063C17.8109 33.913 17.9952 33.8757 18.1592 33.8011C18.3233 33.7244 18.4522 33.6168 18.5459 33.4783C18.6418 33.3377 18.6898 33.1715 18.6898 32.9797C18.6898 32.7262 18.6003 32.5174 18.4213 32.3533C18.2445 32.1892 17.9813 32.1072 17.6319 32.1072H16.4334V33.913ZM27.0114 34.402C27.0114 35.1072 26.8793 35.7113 26.6151 36.2141C26.353 36.7148 25.9951 37.0983 25.5412 37.3647C25.0895 37.631 24.5771 37.7642 24.004 37.7642C23.4308 37.7642 22.9173 37.631 22.4635 37.3647C22.0118 37.0962 21.6538 36.7116 21.3896 36.2109C21.1275 35.7081 20.9965 35.1051 20.9965 34.402C20.9965 33.6967 21.1275 33.0937 21.3896 32.593C21.6538 32.0902 22.0118 31.7056 22.4635 31.4392C22.9173 31.1729 23.4308 31.0397 24.004 31.0397C24.5771 31.0397 25.0895 31.1729 25.5412 31.4392C25.9951 31.7056 26.353 32.0902 26.6151 32.593C26.8793 33.0937 27.0114 33.6967 27.0114 34.402ZM25.8193 34.402C25.8193 33.9055 25.7415 33.4868 25.586 33.1459C25.4326 32.8029 25.2195 32.544 24.9468 32.3693C24.6741 32.1924 24.3598 32.104 24.004 32.104C23.6481 32.104 23.3339 32.1924 23.0611 32.3693C22.7884 32.544 22.5743 32.8029 22.4187 33.1459C22.2653 33.4868 22.1886 33.9055 22.1886 34.402C22.1886 34.8984 22.2653 35.3181 22.4187 35.6612C22.5743 36.0021 22.7884 36.261 23.0611 36.4378C23.3339 36.6125 23.6481 36.6999 24.004 36.6999C24.3598 36.6999 24.6741 36.6125 24.9468 36.4378C25.2195 36.261 25.4326 36.0021 25.586 35.6612C25.7415 35.3181 25.8193 34.8984 25.8193 34.402ZM32.2585 31.1292H33.4442V35.4055C33.4442 35.8743 33.3334 36.2865 33.1118 36.6424C32.8924 36.9982 32.5834 37.2762 32.185 37.4765C31.7865 37.6747 31.321 37.7738 30.7883 37.7738C30.2535 37.7738 29.7869 37.6747 29.3885 37.4765C28.99 37.2762 28.6811 36.9982 28.4616 36.6424C28.2421 36.2865 28.1324 35.8743 28.1324 35.4055V31.1292H29.3181V35.3064C29.3181 35.5792 29.3778 35.8221 29.4971 36.0351C29.6186 36.2482 29.789 36.4154 30.0085 36.5369C30.2279 36.6562 30.4879 36.7159 30.7883 36.7159C31.0887 36.7159 31.3487 36.6562 31.5681 36.5369C31.7897 36.4154 31.9602 36.2482 32.0795 36.0351C32.1988 35.8221 32.2585 35.5792 32.2585 35.3064V31.1292ZM34.4454 32.1232V31.1292H39.6677V32.1232H37.6446V37.6747H36.4684V32.1232H34.4454Z" fill="currentColor"/>
</svg>
