<svg width="48" height="48" viewBox="0 0 48 48" fill="none" xmlns="http://www.w3.org/2000/svg">
<g clip-path="url(#clip0_56_6997)">
<path d="M12.0894 24.3413C11.5269 24.3413 11.053 24.1486 10.6677 23.763C10.2821 23.3777 10.0894 22.9038 10.0894 22.3413C10.0894 21.7789 10.2821 21.305 10.6677 20.9197C11.053 20.5341 11.5269 20.3413 12.0894 20.3413C12.2569 20.3413 12.412 20.3541 12.5547 20.3797C12.6974 20.4055 12.8328 20.4662 12.961 20.562L19.6434 13.8797C19.5476 13.7515 19.4868 13.616 19.461 13.4734C19.4355 13.3307 19.4227 13.1756 19.4227 13.008C19.4227 12.4456 19.6155 11.9717 20.001 11.5863C20.3864 11.2008 20.8602 11.008 21.4227 11.008C21.9851 11.008 22.459 11.2008 22.8444 11.5863C23.2299 11.9717 23.4227 12.4456 23.4227 13.008C23.4227 13.1209 23.3662 13.3945 23.2534 13.8287L27.2687 17.844C27.3969 17.7825 27.5239 17.7388 27.6497 17.713C27.7752 17.6875 27.9218 17.6747 28.0894 17.6747C28.2569 17.6747 28.4078 17.6875 28.542 17.713C28.6762 17.7388 28.7989 17.7996 28.91 17.8953L34.31 12.4953C34.2142 12.3842 34.1535 12.2616 34.1277 12.1274C34.1021 11.9931 34.0894 11.8422 34.0894 11.6747C34.0894 11.1122 34.2821 10.6383 34.6677 10.253C35.053 9.86746 35.5269 9.67468 36.0894 9.67468C36.6518 9.67468 37.1257 9.86746 37.511 10.253C37.8966 10.6383 38.0894 11.1122 38.0894 11.6747C38.0894 12.2371 37.8966 12.711 37.511 13.0964C37.1257 13.4819 36.6518 13.6747 36.0894 13.6747C35.9218 13.6747 35.7709 13.6619 35.6367 13.6363C35.5025 13.6106 35.3798 13.5498 35.2687 13.454L29.8687 18.854C29.9645 18.9651 30.0252 19.0878 30.051 19.222C30.0766 19.3562 30.0894 19.5071 30.0894 19.6747C30.0894 20.2371 29.8966 20.711 29.511 21.0963C29.1257 21.4819 28.6518 21.6747 28.0894 21.6747C27.5269 21.6747 27.053 21.4819 26.6677 21.0963C26.2821 20.711 26.0894 20.2371 26.0894 19.6747C26.0894 19.5071 26.1021 19.352 26.1277 19.2093C26.1535 19.0667 26.2142 18.9312 26.31 18.803L22.2944 14.7873C22.1661 14.8831 22.0307 14.9439 21.888 14.9697C21.7454 14.9952 21.5902 15.008 21.4227 15.008C21.3098 15.008 21.0362 14.9516 20.602 14.8387L13.92 21.5207C13.9816 21.6489 14.0252 21.7759 14.051 21.9017C14.0766 22.0272 14.0894 22.1738 14.0894 22.3413C14.0894 22.9038 13.8966 23.3777 13.511 23.763C13.1257 24.1486 12.6518 24.3413 12.0894 24.3413Z" fill="currentColor"/>
</g>
<path d="M14.953 37.6747H12.735V31.1292H14.9977C15.6476 31.1292 16.2058 31.2603 16.6725 31.5223C17.1412 31.7823 17.5013 32.1562 17.7527 32.6441C18.0041 33.1321 18.1298 33.7159 18.1298 34.3956C18.1298 35.0774 18.0031 35.6633 17.7495 36.1534C17.4981 36.6434 17.1348 37.0195 16.6597 37.2816C16.1867 37.5436 15.6178 37.6747 14.953 37.6747ZM13.9207 36.6488H14.8955C15.3514 36.6488 15.7318 36.5657 16.0364 36.3995C16.3411 36.2311 16.5702 35.9808 16.7236 35.6484C16.877 35.3139 16.9537 34.8963 16.9537 34.3956C16.9537 33.8949 16.877 33.4794 16.7236 33.1491C16.5702 32.8167 16.3433 32.5685 16.0428 32.4044C15.7445 32.2382 15.3738 32.1552 14.9306 32.1552H13.9207V36.6488ZM19.7454 37.6747H18.4798L20.7841 31.1292H22.2479L24.5554 37.6747H23.2898L21.5416 32.4716H21.4905L19.7454 37.6747ZM19.787 35.1083H23.2387V36.0607H19.787V35.1083ZM24.3389 32.1232V31.1292H29.5612V32.1232H27.5381V37.6747H26.362V32.1232H24.3389ZM30.6175 37.6747H29.3519L31.6562 31.1292H33.12L35.4275 37.6747H34.1619L32.4137 32.4716H32.3625L30.6175 37.6747ZM30.659 35.1083H34.1108V36.0607H30.659V35.1083Z" fill="currentColor"/>
<defs>
<clipPath id="clip0_56_6997">
<rect width="32" height="16" fill="currentColor" transform="translate(8.08936 9.67468)"/>
</clipPath>
</defs>
</svg>
