<svg width="48" height="48" viewBox="0 0 48 48" fill="none" xmlns="http://www.w3.org/2000/svg">
<path d="M9.42285 23.105V21.9536C9.42285 21.1347 9.8604 19.4612 10.7355 18.921C11.6108 18.381 12.7374 18.111 14.1152 18.111C14.3185 18.111 14.5364 18.1208 14.7688 18.1403C15.0015 18.1601 15.2486 18.1922 15.5102 18.2367C15.3015 18.6007 15.1493 18.9741 15.0535 19.357C14.958 19.7399 14.9102 21.1176 14.9102 21.5023V23.105H9.42285ZM17.4229 23.105V21.605C17.4229 21.0676 17.5788 19.5824 17.8908 19.1373C18.2028 18.6924 18.6631 18.3075 19.2715 17.9827C19.8802 17.658 20.5892 17.4144 21.3985 17.252C22.2078 17.0895 23.1014 17.0083 24.0792 17.0083C25.0758 17.0083 25.9788 17.0895 26.7882 17.252C27.5975 17.4144 28.3065 17.658 28.9152 17.9827C29.5236 18.3075 29.9826 18.6924 30.2922 19.1373C30.6015 19.5824 30.7562 21.0676 30.7562 21.605V23.105H17.4229ZM33.2689 23.105V21.51C33.2689 21.0846 33.2223 19.6899 33.1292 19.3137C33.0361 18.9374 32.8964 18.5784 32.7102 18.2367C32.9886 18.1922 33.2386 18.1601 33.4602 18.1403C33.6815 18.1208 33.8913 18.111 34.0895 18.111C35.4673 18.111 36.5895 18.3798 37.4562 18.9173C38.3228 19.4549 38.7562 21.1296 38.7562 21.9536V23.105H33.2689ZM18.7945 21.7716H29.3922V21.4896C29.3409 20.857 28.8224 19.3459 27.8368 18.9443C26.8515 18.5425 25.6024 18.3417 24.0895 18.3417C22.5766 18.3417 21.3275 18.5425 20.3422 18.9443C19.3566 19.3459 18.8407 20.857 18.7945 21.4896V21.7716ZM14.1082 16.8543C13.5846 16.8543 13.1386 16.6685 12.7702 16.297C12.402 15.9254 12.2178 15.4788 12.2178 14.957C12.2178 14.4408 12.4036 13.9998 12.7752 13.634C13.1467 13.2682 13.5934 13.0853 14.1152 13.0853C14.6314 13.0853 15.0767 13.2682 15.4512 13.634C15.8254 13.9998 16.0125 14.4433 16.0125 14.9647C16.0125 15.4707 15.8301 15.9121 15.4652 16.289C15.1001 16.6659 14.6477 16.8543 14.1082 16.8543ZM34.0895 16.8543C33.5784 16.8543 33.1344 16.6659 32.7575 16.289C32.3806 15.9121 32.1922 15.4707 32.1922 14.9647C32.1922 14.4433 32.3806 13.9998 32.7575 13.634C33.1344 13.2682 33.5801 13.0853 34.0945 13.0853C34.6245 13.0853 35.0724 13.2682 35.4382 13.634C35.804 13.9998 35.9868 14.4408 35.9868 14.957C35.9868 15.4788 35.8051 15.9254 35.4415 16.297C35.0777 16.6685 34.6271 16.8543 34.0895 16.8543ZM24.0985 16.0083C23.2892 16.0083 22.5982 15.7241 22.0255 15.1557C21.4528 14.5874 21.1665 13.8973 21.1665 13.0853C21.1665 12.2571 21.4506 11.5629 22.0188 11.0027C22.5873 10.4422 23.2775 10.162 24.0895 10.162C24.9177 10.162 25.612 10.4413 26.1722 11C26.7324 11.5584 27.0125 12.2505 27.0125 13.0763C27.0125 13.8857 26.7333 14.5767 26.1748 15.1493C25.6164 15.722 24.9243 16.0083 24.0985 16.0083ZM24.1022 14.675C24.54 14.675 24.9122 14.5173 25.2188 14.202C25.5257 13.8864 25.6792 13.5099 25.6792 13.0723C25.6792 12.6348 25.5268 12.2625 25.2222 11.9557C24.9175 11.6488 24.54 11.4953 24.0895 11.4953C23.6604 11.4953 23.2882 11.6478 22.9728 11.9527C22.6575 12.2573 22.4998 12.6349 22.4998 13.0853C22.4998 13.5142 22.6575 13.8864 22.9728 14.202C23.2882 14.5173 23.6646 14.675 24.1022 14.675Z" fill="currentColor"/>
<path d="M8.79213 32.9286C8.7623 32.6495 8.63659 32.4321 8.41499 32.2766C8.19553 32.1211 7.91002 32.0433 7.55846 32.0433C7.3113 32.0433 7.0993 32.0806 6.92245 32.1552C6.74561 32.2297 6.61031 32.3309 6.51656 32.4588C6.42281 32.5866 6.37487 32.7326 6.37274 32.8966C6.37274 33.033 6.40363 33.1512 6.46542 33.2514C6.52934 33.3515 6.61563 33.4368 6.7243 33.5071C6.83296 33.5753 6.95335 33.6328 7.08545 33.6797C7.21755 33.7265 7.35072 33.7659 7.48495 33.7979L8.09859 33.9513C8.34575 34.0088 8.58332 34.0866 8.8113 34.1846C9.04142 34.2826 9.24703 34.4062 9.42813 34.5554C9.61137 34.7045 9.75626 34.8846 9.86279 35.0955C9.96933 35.3064 10.0226 35.5536 10.0226 35.837C10.0226 36.2205 9.92458 36.5582 9.72856 36.8501C9.53254 37.1399 9.24916 37.3668 8.87842 37.5309C8.50981 37.6928 8.06343 37.7738 7.53928 37.7738C7.03005 37.7738 6.58794 37.6949 6.21294 37.5373C5.84007 37.3796 5.54816 37.1495 5.33722 36.8469C5.12842 36.5444 5.01549 36.1757 4.99845 35.7411H6.16499C6.18204 35.9691 6.25235 36.1587 6.37593 36.31C6.49951 36.4613 6.66038 36.5742 6.85853 36.6488C7.05882 36.7233 7.28254 36.7606 7.5297 36.7606C7.78751 36.7606 8.01336 36.7223 8.20725 36.6456C8.40328 36.5667 8.55669 36.4581 8.66748 36.3196C8.77828 36.1789 8.83474 36.0149 8.83687 35.8274C8.83474 35.6569 8.78467 35.5163 8.68666 35.4055C8.58865 35.2926 8.45122 35.1988 8.27437 35.1243C8.09965 35.0476 7.89511 34.9794 7.66073 34.9197L6.91606 34.7279C6.377 34.5895 5.95086 34.3796 5.63765 34.0983C5.32657 33.815 5.17103 33.4389 5.17103 32.9701C5.17103 32.5845 5.27544 32.2468 5.48424 31.957C5.69518 31.6672 5.98176 31.4424 6.34397 31.2826C6.70619 31.1207 7.11634 31.0397 7.57444 31.0397C8.03893 31.0397 8.44589 31.1207 8.79532 31.2826C9.14688 31.4424 9.42281 31.6651 9.62309 31.9506C9.82338 32.234 9.92671 32.56 9.93311 32.9286H8.79213ZM10.792 32.1232V31.1292H16.0143V32.1232H13.9913V37.6747H12.8151V32.1232H10.792ZM22.5798 34.402C22.5798 35.1072 22.4477 35.7113 22.1835 36.2141C21.9214 36.7148 21.5634 37.0983 21.1096 37.3647C20.6579 37.631 20.1455 37.7642 19.5723 37.7642C18.9992 37.7642 18.4857 37.631 18.0318 37.3647C17.5801 37.0962 17.2222 36.7116 16.958 36.2109C16.6959 35.7081 16.5649 35.1051 16.5649 34.402C16.5649 33.6967 16.6959 33.0937 16.958 32.593C17.2222 32.0902 17.5801 31.7056 18.0318 31.4392C18.4857 31.1729 18.9992 31.0397 19.5723 31.0397C20.1455 31.0397 20.6579 31.1729 21.1096 31.4392C21.5634 31.7056 21.9214 32.0902 22.1835 32.593C22.4477 33.0937 22.5798 33.6967 22.5798 34.402ZM21.3877 34.402C21.3877 33.9055 21.3099 33.4868 21.1543 33.1459C21.0009 32.8029 20.7879 32.544 20.5151 32.3693C20.2424 32.1924 19.9281 32.104 19.5723 32.104C19.2165 32.104 18.9022 32.1924 18.6295 32.3693C18.3568 32.544 18.1426 32.8029 17.9871 33.1459C17.8337 33.4868 17.757 33.9055 17.757 34.402C17.757 34.8984 17.8337 35.3181 17.9871 35.6612C18.1426 36.0021 18.3568 36.261 18.6295 36.4378C18.9022 36.6125 19.2165 36.6999 19.5723 36.6999C19.9281 36.6999 20.2424 36.6125 20.5151 36.4378C20.7879 36.261 21.0009 36.0021 21.1543 35.6612C21.3099 35.3181 21.3877 34.8984 21.3877 34.402ZM23.7008 37.6747V31.1292H26.1553C26.6582 31.1292 27.08 31.2166 27.4209 31.3913C27.764 31.566 28.0229 31.811 28.1976 32.1264C28.3744 32.4396 28.4628 32.805 28.4628 33.2226C28.4628 33.6424 28.3734 34.0067 28.1944 34.3157C28.0175 34.6225 27.7565 34.8601 27.4114 35.0284C27.0662 35.1946 26.6422 35.2777 26.1393 35.2777H24.3911V34.2933H25.9795C26.2736 34.2933 26.5143 34.2528 26.7018 34.1718C26.8893 34.0887 27.0278 33.9684 27.1173 33.8107C27.2089 33.6509 27.2547 33.4549 27.2547 33.2226C27.2547 32.9904 27.2089 32.7922 27.1173 32.6282C27.0257 32.462 26.8861 32.3363 26.6986 32.251C26.5111 32.1637 26.2693 32.12 25.9731 32.12H24.8865V37.6747H23.7008ZM27.0822 34.7088L28.7025 37.6747H27.3794L25.7878 34.7088H27.0822ZM30.74 31.1292V37.6747H29.5543V31.1292H30.74ZM32.024 37.6747V31.1292H36.2811V32.1232H33.2097V33.9002H36.0606V34.8941H33.2097V36.6807H36.3067V37.6747H32.024ZM41.048 32.9286C41.0182 32.6495 40.8924 32.4321 40.6709 32.2766C40.4514 32.1211 40.1659 32.0433 39.8143 32.0433C39.5672 32.0433 39.3552 32.0806 39.1783 32.1552C39.0015 32.2297 38.8662 32.3309 38.7724 32.4588C38.6787 32.5866 38.6307 32.7326 38.6286 32.8966C38.6286 33.033 38.6595 33.1512 38.7213 33.2514C38.7852 33.3515 38.8715 33.4368 38.9802 33.5071C39.0888 33.5753 39.2092 33.6328 39.3413 33.6797C39.4734 33.7265 39.6066 33.7659 39.7408 33.7979L40.3544 33.9513C40.6016 34.0088 40.8392 34.0866 41.0672 34.1846C41.2973 34.2826 41.5029 34.4062 41.684 34.5554C41.8672 34.7045 42.0121 34.8846 42.1187 35.0955C42.2252 35.3064 42.2785 35.5536 42.2785 35.837C42.2785 36.2205 42.1804 36.5582 41.9844 36.8501C41.7884 37.1399 41.505 37.3668 41.1343 37.5309C40.7657 37.6928 40.3193 37.7738 39.7951 37.7738C39.2859 37.7738 38.8438 37.6949 38.4688 37.5373C38.0959 37.3796 37.804 37.1495 37.5931 36.8469C37.3843 36.5444 37.2714 36.1757 37.2543 35.7411H38.4209C38.4379 35.9691 38.5082 36.1587 38.6318 36.31C38.7554 36.4613 38.9162 36.5742 39.1144 36.6488C39.3147 36.7233 39.5384 36.7606 39.7856 36.7606C40.0434 36.7606 40.2692 36.7223 40.4631 36.6456C40.6591 36.5667 40.8125 36.4581 40.9233 36.3196C41.0341 36.1789 41.0906 36.0149 41.0927 35.8274C41.0906 35.6569 41.0405 35.5163 40.9425 35.4055C40.8445 35.2926 40.7071 35.1988 40.5302 35.1243C40.3555 35.0476 40.151 34.9794 39.9166 34.9197L39.1719 34.7279C38.6329 34.5895 38.2067 34.3796 37.8935 34.0983C37.5824 33.815 37.4269 33.4389 37.4269 32.9701C37.4269 32.5845 37.5313 32.2468 37.7401 31.957C37.951 31.6672 38.2376 31.4424 38.5998 31.2826C38.962 31.1207 39.3722 31.0397 39.8303 31.0397C40.2948 31.0397 40.7017 31.1207 41.0512 31.2826C41.4027 31.4424 41.6787 31.6651 41.879 31.9506C42.0792 32.234 42.1826 32.56 42.189 32.9286H41.048Z" fill="currentColor"/>
</svg>
