<svg width="493" height="181" viewBox="0 0 493 181" fill="none" xmlns="http://www.w3.org/2000/svg" preserveAspectRatio="none">
<path id="panel-bg-2" d="M491.14 133.59C491.14 125.06 490.32 125.06 490.32 116.54C490.32 108.02 492.04 108.02 492.04 99.4998C492.04 90.9798 492.22 90.9798 492.22 82.4498C492.22 76.7698 492.213 71.0898 492.2 65.4098C492.2 56.8898 491.06 56.8898 491.06 48.3698C491.033 42.6898 491.01 37.0098 490.99 31.3298C490.99 27.0698 490.91 24.9398 490.84 22.8098C490.81 21.7498 490.78 20.6798 490.74 19.3498C490.73 18.5098 490.72 17.5898 490.71 16.5398C490.71 15.0598 490.69 13.3898 490.68 11.4898C490.61 9.5998 490.14 8.2098 489.7 7.1598C489.3 6.1598 488.56 5.1298 487.78 4.4198C487.39 4.0598 487 3.7698 486.64 3.5398C486.29 3.3198 485.95 3.1298 485.58 2.9498C484.87 2.5798 484.07 2.2898 483.22 2.0698C482.36 1.8498 481.39 1.7898 480.35 1.7398C479.3 1.6898 478.19 1.6498 476.96 1.5898C476.05 1.5598 475.05 1.5198 473.92 1.4898C473.09 1.4598 472.16 1.4498 471.09 1.4498C465.41 1.47647 459.73 1.50314 454.05 1.5298C445.53 1.5298 445.53 1.0398 437.01 1.0398C428.49 1.0398 428.49 2.7098 419.97 2.7098C411.45 2.7098 411.45 1.4898 402.93 1.4898C394.41 1.4898 394.41 0.819805 385.89 0.819805C377.37 0.819805 377.37 2.6798 368.85 2.6798C360.33 2.6798 360.33 1.7898 351.81 1.7898C343.29 1.7898 343.29 1.2298 334.77 1.2298C326.25 1.2298 326.25 0.839805 317.73 0.839805C309.21 0.839805 309.21 1.4598 300.7 1.4598C292.19 1.4598 292.18 2.1798 283.66 2.1798C275.14 2.1798 275.14 2.5598 266.63 2.5598C258.12 2.5598 258.11 1.5598 249.59 1.5598C241.07 1.5598 241.07 2.2498 232.56 2.2498C224.05 2.2498 224.05 2.3998 215.53 2.3998C207.01 2.3998 207.01 1.8098 198.49 1.8098C189.97 1.8098 189.98 1.0898 181.46 1.0898C172.94 1.0898 172.95 0.679804 164.44 0.679804C155.93 0.679804 155.93 1.7298 147.41 1.7298C138.89 1.7298 138.89 0.589805 130.37 0.589805C121.85 0.589805 121.85 1.1398 113.34 1.1398L96.3001 1.1898C87.7801 1.1898 87.7801 2.1698 79.2701 2.1698C70.7601 2.1698 70.7501 1.3798 62.2401 1.3798C56.5601 1.37314 50.8801 1.36647 45.2001 1.3598C36.6801 1.3598 36.6801 0.549805 28.1701 0.549805C23.9101 0.549805 21.7801 0.699805 19.6501 0.859805C19.1201 0.899805 18.5901 0.929804 18.0201 0.969804C16.9601 0.999804 15.8301 1.0298 14.5901 1.0698C13.9501 1.0798 13.2701 1.0998 12.5601 1.1098C11.8401 1.1098 11.0901 1.1298 10.3201 1.1998C8.79014 1.3798 7.31014 1.8998 6.00014 2.6498C4.64014 3.4098 3.36014 4.7898 2.76014 5.8198C2.16014 6.8198 1.71014 7.8998 1.46014 9.0398C1.20014 10.1598 1.16014 11.3198 1.17014 12.4198C1.17014 13.5098 1.16014 14.5398 1.15014 15.5698C1.14014 17.9798 1.13014 20.3798 1.10014 25.1898C1.10014 33.7098 0.640137 33.7098 0.640137 42.2198C0.640137 50.7298 1.33014 50.7398 1.33014 59.2598C1.32347 64.9398 1.3168 70.6165 1.31014 76.2898C1.31014 84.8098 0.930137 84.8098 0.930137 93.3198C0.930137 101.83 1.51014 101.84 1.51014 110.35C1.51014 118.86 1.07014 118.87 1.07014 127.39C1.07014 135.91 1.38014 135.91 1.38014 144.42C1.38014 152.93 1.01014 152.94 1.01014 161.45C1.02014 162.6 1.04014 163.61 1.05014 164.53C1.09014 166.02 1.12014 167.36 1.15014 168.58C1.20014 169.78 1.21014 170.89 1.46014 171.79C1.68014 172.7 1.98014 173.47 2.33014 174.12C2.69014 174.79 3.01014 175.31 3.53014 175.93C4.04014 176.54 4.71014 177.17 5.47014 177.67C6.24014 178.18 6.97014 178.47 7.96014 178.81C8.95014 179.13 10.2001 179.4 11.7501 179.39C12.4001 179.39 13.6801 179.38 15.0801 179.37C16.0501 179.37 16.9701 179.37 17.8301 179.37C18.3101 179.37 18.7601 179.38 19.1801 179.39C20.0101 179.41 20.7401 179.43 21.4101 179.45C22.7401 179.5 23.8101 179.57 24.8701 179.64C27.0001 179.78 29.1301 179.92 33.3901 179.92C41.9101 179.92 41.9101 179.62 50.4201 179.62C58.9301 179.62 58.9301 179.08 67.4501 179.08C75.9701 179.08 75.9601 180.83 84.4801 180.83C93.0001 180.83 93.0001 179.9 101.51 179.9C110.02 179.9 110.03 179.24 118.54 179.24C127.05 179.24 127.05 178.77 135.57 178.77C144.09 178.77 144.08 179.56 152.6 179.56C161.12 179.56 161.11 179.22 169.63 179.22C178.15 179.22 178.15 179.97 186.66 179.97C195.17 179.97 195.18 179.41 203.69 179.41C212.2 179.41 212.2 180.51 220.72 180.51C229.24 180.51 229.23 179.83 237.75 179.83C246.27 179.83 246.26 180.28 254.78 180.28C263.3 180.28 263.29 178.98 271.81 178.98C280.33 178.98 280.33 180.71 288.84 180.71C297.35 180.71 297.36 180.85 305.87 180.85C314.38 180.85 314.38 179.61 322.9 179.61C328.573 179.623 334.25 179.636 339.93 179.65C348.44 179.65 348.44 180.16 356.95 180.16C365.46 180.16 365.46 179.58 373.97 179.58C382.48 179.58 382.48 179.39 391 179.39C399.52 179.39 399.52 179.62 408.03 179.62C416.54 179.62 416.55 180.69 425.06 180.69C433.57 180.69 433.57 180.32 442.09 180.32C450.61 180.32 450.6 179.93 459.11 179.93C467.62 179.93 467.62 179.59 476.13 179.59C476.38 179.59 476.61 179.58 476.85 179.57C476.9 179.62 476.96 179.67 477.03 179.7C477.65 179.97 484.91 178.18 486.09 177.9C487.25 177.61 488.72 176.89 490 175.29C490.63 174.5 491.2 173.47 491.54 172.24C491.71 171.63 491.82 170.97 491.86 170.27C491.89 170.13 491.93 169.98 491.96 169.83C492.08 169.23 492.15 168.53 492.15 167.72C492.15 159.19 490.26 159.19 490.26 150.66C490.26 142.13 491.12 142.13 491.12 133.6L491.14 133.59Z" fill="currentColor"/>
</svg>
