<svg width="485" height="109" viewBox="0 0 485 109" fill="none" xmlns="http://www.w3.org/2000/svg" preserveAspectRatio="none">
<path d="M474.66 106.68C475.35 106.68 479.47 106.64 480.38 105.8C481.33 104.92 481.9 103.99 482.95 102.22C483.21 101.78 483.43 101.29 483.59 100.75C483.67 100.48 483.74 100.2 483.79 99.9104L483.85 99.4704C483.87 99.3304 483.88 99.1304 483.89 99.1504C483.97 98.9404 484.05 98.7204 484.1 98.4804C484.22 97.9904 484.28 97.4204 484.28 96.7504C484.28 89.7604 482.48 89.7604 482.48 82.7604C482.48 75.7604 483.3 75.7704 483.3 68.7704C483.3 61.7704 482.52 61.7804 482.52 54.7904C482.52 47.8004 484.16 47.8104 484.16 40.8204C484.16 33.8304 484.33 33.8304 484.33 26.8404L484.31 10.5004C484.31 9.64043 484.32 8.83043 484.21 8.13043C484.15 7.78043 484.1 7.44043 484 7.15043C483.92 6.84043 483.82 6.56043 483.71 6.31043C483.51 5.78043 483.25 5.36043 483.01 4.97043C482.76 4.60043 482.53 4.28043 482.23 3.96043C481.63 3.29043 480.85 2.71043 480.19 2.37043C479.55 2.04043 478.92 1.83043 478.21 1.62043C477.47 1.44043 476.7 1.28043 475.78 1.24043C474.87 1.18043 473.83 1.27043 472.72 1.31043C471.6 1.36043 470.39 1.40043 469.03 1.42043C468.53 1.42043 468 1.44043 467.44 1.45043C467.02 1.45043 466.57 1.45043 466.1 1.46043C461.027 1.48043 455.957 1.50043 450.89 1.52043C443.29 1.52043 443.29 1.79043 435.68 1.79043C428.07 1.79043 428.07 0.990429 420.46 0.990429C415.387 1.0171 410.317 1.04043 405.25 1.06043C397.64 1.06043 397.64 0.630428 390.04 0.630428C382.44 0.630428 382.43 2.09043 374.83 2.09043C367.23 2.09043 367.22 1.02043 359.62 1.02043C352.02 1.02043 352.01 0.430429 344.41 0.430429C336.81 0.430429 336.81 2.06043 329.2 2.06043C321.59 2.06043 321.59 1.28043 313.99 1.28043C306.39 1.28043 306.39 0.79043 298.78 0.79043C291.17 0.79043 291.18 0.45043 283.57 0.45043C275.96 0.45043 275.97 0.990429 268.36 0.990429C260.75 0.990429 260.76 1.62043 253.15 1.62043C245.54 1.62043 245.55 1.95043 237.95 1.95043C230.35 1.95043 230.35 1.07043 222.74 1.07043C215.13 1.07043 215.14 1.68043 207.54 1.68043C199.94 1.68043 199.94 1.81043 192.34 1.81043C184.74 1.81043 184.74 1.30043 177.13 1.30043C169.52 1.30043 169.53 0.670429 161.93 0.670429C154.33 0.670429 154.33 0.310429 146.73 0.310429C139.13 0.310429 139.13 1.23043 131.53 1.23043C123.93 1.23043 123.93 0.230429 116.32 0.230429C108.71 0.230429 108.72 0.710428 101.11 0.710428C96.0436 0.723762 90.9736 0.737096 85.9002 0.750429C78.3002 0.750429 78.3002 1.61043 70.6902 1.61043C63.0802 1.61043 63.0902 0.920429 55.4802 0.920429C50.4136 0.913763 45.3436 0.907095 40.2702 0.900429C32.6702 0.900429 32.6702 0.19043 25.0702 0.19043C21.2702 0.19043 19.3702 0.320428 17.4702 0.460428C17.2302 0.480428 16.9902 0.490429 16.7502 0.510429C16.3002 0.530429 15.8502 0.540429 15.3902 0.560429C14.4102 0.590429 13.3802 0.610429 12.2302 0.650429C11.1002 0.700429 9.78023 0.63043 8.48023 0.85043C7.18023 1.07043 5.92023 1.53043 4.83023 2.17043C3.98023 2.65043 3.09023 3.46043 2.58023 4.13043C2.08023 4.76043 1.78023 5.35043 1.48023 5.97043C0.930234 7.22043 0.750234 8.43043 0.740234 9.36043C0.720234 13.0204 0.710235 15.1904 0.680235 21.0104C0.680235 27.9904 0.240234 27.9904 0.240234 34.9704C0.240234 41.9504 0.900234 41.9504 0.900234 48.9404C0.893568 53.5938 0.8869 58.2504 0.880234 62.9104C0.880234 69.8904 0.520235 69.8904 0.520235 76.8704C0.520235 83.8504 1.07023 83.8504 1.07023 90.8304C1.04023 93.3304 1.02023 95.2004 1.00023 96.7604C1.00023 97.8004 0.930234 98.7604 0.970234 99.6204C1.03023 100.47 1.17023 101.24 1.41023 101.9C1.63023 102.59 1.93023 103.17 2.26023 103.74C2.59023 104.28 3.17023 105 3.92023 105.6C4.69023 106.21 5.35023 106.58 6.43023 107.03C7.49023 107.45 8.97023 107.75 10.8402 107.71C12.6902 107.71 14.3002 107.71 15.7502 107.7C16.6602 107.69 17.4602 107.68 18.1802 107.67C19.3702 107.63 20.3202 107.61 21.2702 107.58C23.1702 107.51 25.0702 107.44 28.8702 107.44C36.4702 107.44 36.4702 107.77 44.0702 107.77C51.6702 107.77 51.6702 106.84 59.2702 106.84C66.8702 106.84 66.8702 107.33 74.4802 107.33C82.0902 107.33 82.0802 107.07 89.6802 107.07C97.2802 107.07 97.2802 106.59 104.88 106.59C112.48 106.59 112.48 108.12 120.08 108.12C127.68 108.12 127.68 107.31 135.29 107.31C142.9 107.31 142.89 106.73 150.49 106.73C158.09 106.73 158.09 106.32 165.69 106.32C173.29 106.32 173.29 107.01 180.89 107.01C188.49 107.01 188.49 106.71 196.09 106.71C203.69 106.71 203.69 107.37 211.29 107.37C218.89 107.37 218.89 106.88 226.5 106.88C234.11 106.88 234.1 107.84 241.7 107.84C249.3 107.84 249.3 107.24 256.9 107.24C264.5 107.24 264.5 107.63 272.1 107.63C279.7 107.63 279.7 106.5 287.3 106.5C294.9 106.5 294.9 108.01 302.5 108.01C310.1 108.01 310.1 108.13 317.71 108.13C325.32 108.13 325.31 107.04 332.91 107.04C337.977 107.054 343.044 107.064 348.11 107.07C355.71 107.07 355.71 107.52 363.31 107.52C370.91 107.52 370.91 107.01 378.51 107.01C386.11 107.01 386.11 106.85 393.71 106.85C401.31 106.85 401.31 107.05 408.91 107.05C416.51 107.05 416.51 107.98 424.11 107.98C431.71 107.98 431.71 107.65 439.31 107.65C446.91 107.65 446.91 107.31 454.51 107.31C462.11 107.31 462.11 107.02 469.71 107.02" fill="currentColor"/>
</svg>
