<svg viewBox="0 0 415 5" fill="none" xmlns="http://www.w3.org/2000/svg" preserveAspectRatio="none">
<path d="M411.16 3.89C406.64 3.89 406.64 3.92 402.12 3.92C397.6 3.92 397.6 4.24 393.07 4.24C388.54 4.24 388.55 3.79 384.03 3.79C379.51 3.79 379.51 3.81 374.99 3.81C370.47 3.81 370.47 4.04 365.95 4.04C361.43 4.04 361.43 3.84 356.91 3.84C352.39 3.84 352.39 3.91 347.87 3.91C343.35 3.91 343.35 4.16 338.83 4.16C334.31 4.16 334.31 4.08 329.79 4.08C325.27 4.08 325.27 3.92 320.75 3.92C316.23 3.92 316.23 4.19 311.71 4.19C307.19 4.19 307.19 4.01 302.67 4.01C298.15 4.01 298.15 3.81 293.63 3.81C289.11 3.81 289.11 4.2 284.58 4.2C280.05 4.2 280.06 4.02 275.54 4.02C271.02 4.02 271.02 3.81 266.49 3.81C261.96 3.81 261.97 4.14 257.45 4.14C252.93 4.14 252.93 3.93 248.41 3.93C243.89 3.93 243.89 4.08 239.37 4.08C234.85 4.08 234.85 3.76 230.33 3.76C225.81 3.76 225.81 4.09 221.29 4.09C216.77 4.09 216.77 3.79 212.25 3.79C207.73 3.79 207.73 3.76 203.2 3.76C198.67 3.76 198.68 3.82 194.16 3.82C189.64 3.82 189.64 3.77 185.11 3.77C180.58 3.77 180.59 3.98 176.07 3.98C171.55 3.98 171.55 3.78 167.03 3.78C162.51 3.78 162.51 4.06 157.99 4.06C153.47 4.06 153.47 4.29 148.94 4.29C144.41 4.29 144.42 4.16 139.9 4.16C135.38 4.16 135.38 4.12 130.85 4.12C126.32 4.12 126.33 3.82 121.8 3.82C117.27 3.82 117.28 3.87 112.75 3.87C108.22 3.87 108.23 4.22 103.7 4.22C99.17 4.22 99.18 3.94 94.65 3.94C90.12 3.94 90.12 4.03 85.6 4.03C81.08 4.03 81.08 3.83 76.56 3.83C72.04 3.83 72.04 3.97 67.51 3.97C62.98 3.97 62.99 3.76 58.46 3.76C53.93 3.76 53.94 3.94 49.41 3.94C44.88 3.94 44.88 3.88 40.36 3.88C35.84 3.88 35.84 3.92 31.31 3.92C26.78 3.92 26.78 4.12 22.26 4.12C17.74 4.12 17.73 3.83 13.2 3.83C8.67 3.83 8.67 3.77 4.14 3.77C0.649999 3.77 0 3.2 0 2.16C0 1.12 0.639999 0.410004 4.14 0.410004C8.66 0.410004 8.66 0.5 13.18 0.5C17.7 0.5 17.7 0.520004 22.23 0.520004C26.76 0.520004 26.75 0.25 31.27 0.25C35.79 0.25 35.79 0.510002 40.31 0.510002C44.83 0.510002 44.83 0.0599976 49.35 0.0599976C53.87 0.0599976 53.87 0.129997 58.39 0.129997C62.91 0.129997 62.91 0.340004 67.43 0.340004C71.95 0.340004 71.95 0.389999 76.47 0.389999C80.99 0.389999 80.99 0.43 85.51 0.43C90.03 0.43 90.03 0.550003 94.55 0.550003C99.07 0.550003 99.07 0.480003 103.59 0.480003C108.11 0.480003 108.11 0.43 112.63 0.43C117.15 0.43 117.15 0.18 121.67 0.18C126.19 0.18 126.19 0.0699997 130.72 0.0699997C135.25 0.0699997 135.24 0.160004 139.76 0.160004C144.28 0.160004 144.28 0.220001 148.81 0.220001C153.34 0.220001 153.33 0.349998 157.85 0.349998C162.37 0.349998 162.37 0.25 166.89 0.25C171.41 0.25 171.41 0.360001 175.93 0.360001C180.45 0.360001 180.45 0.340004 184.97 0.340004C189.49 0.340004 189.49 0.190002 194.01 0.190002C198.53 0.190002 198.53 0.459999 203.05 0.459999C207.57 0.459999 207.57 0 212.1 0C216.63 0 216.62 0.0100021 221.14 0.0100021C225.66 0.0100021 225.66 0.0100021 230.19 0.0100021C234.72 0.0100021 234.71 0 239.23 0C243.75 0 243.75 0.400002 248.27 0.400002C252.79 0.400002 252.79 0.309998 257.31 0.309998C261.83 0.309998 261.83 0.129997 266.36 0.129997C270.89 0.129997 270.88 0.0299988 275.4 0.0299988C279.92 0.0299988 279.92 0.540001 284.45 0.540001C288.98 0.540001 288.97 0.340004 293.5 0.340004C298.03 0.340004 298.02 0.199997 302.55 0.199997C307.08 0.199997 307.07 0.260002 311.6 0.260002C316.13 0.260002 316.12 0.0599976 320.65 0.0599976C325.18 0.0599976 325.17 0.449997 329.7 0.449997C334.23 0.449997 334.22 0.239998 338.74 0.239998C343.26 0.239998 343.26 0.0200043 347.79 0.0200043C352.32 0.0200043 352.31 0 356.84 0C361.37 0 361.36 0 365.89 0C370.42 0 370.42 0.379997 374.94 0.379997C379.46 0.379997 379.46 0.459999 383.99 0.459999C388.52 0.459999 388.52 0.32 393.04 0.32C397.56 0.32 397.57 0.209999 402.1 0.209999C406.63 0.209999 406.63 0.410004 411.16 0.410004C414.65 0.410004 414.37 1.11 414.37 2.15C414.37 3.19 414.65 3.91 411.16 3.91V3.89Z" fill="currentColor"/>
</svg>
