<svg viewBox="0 0 248 8" fill="none" xmlns="http://www.w3.org/2000/svg" preserveAspectRatio="none">
<path d="M246.855 7.87742C245.195 7.87742 245.195 7.32567 243.535 7.32567C241.875 7.32567 241.875 6.95787 240.215 6.95787C238.555 6.95787 238.555 7.87742 236.895 7.87742C235.235 7.87742 235.235 7.35635 233.575 7.35635C231.915 7.35635 231.915 7.93868 230.255 7.93868C228.595 7.93868 228.595 7.23372 226.935 7.23372C225.275 7.23372 225.275 7.96937 223.615 7.96937C221.955 7.96937 221.955 7.96937 220.295 7.96937C218.635 7.96937 218.635 7.23372 216.975 7.23372C215.315 7.23372 215.315 7.96937 213.655 7.96937C211.995 7.96937 211.995 7.54025 210.335 7.54025C208.675 7.54025 208.675 7.90805 207.015 7.90805C205.355 7.90805 205.355 7.6322 203.695 7.6322C202.035 7.6322 202.035 7.20308 200.375 7.20308C198.715 7.20308 198.715 7.08045 197.055 7.08045C195.395 7.08045 195.395 7.35635 193.735 7.35635C192.075 7.35635 192.075 7.08045 190.415 7.08045C188.755 7.08045 188.755 7.29503 187.095 7.29503C185.435 7.29503 185.435 7.47893 183.775 7.47893C182.115 7.47893 182.115 7.84673 180.455 7.84673C178.795 7.84673 178.795 7.75478 177.135 7.75478C175.475 7.75478 175.475 7.26435 173.815 7.26435C172.155 7.26435 172.155 7.26435 170.495 7.26435C168.835 7.26435 168.835 6.9885 167.175 6.9885C165.515 6.9885 165.515 7.78546 163.855 7.78546C162.195 7.78546 162.195 7.6322 160.535 7.6322C158.875 7.6322 158.875 8 157.215 8C155.555 8 155.555 7.87742 153.895 7.87742C152.235 7.87742 152.235 7.23372 150.575 7.23372C148.915 7.23372 148.915 7.69347 147.255 7.69347C145.595 7.69347 145.595 7.87742 143.935 7.87742C142.275 7.87742 142.275 7.69347 140.615 7.69347C138.955 7.69347 138.955 7.75478 137.295 7.75478C135.635 7.75478 135.635 6.9885 133.975 6.9885C132.315 6.9885 132.315 7.1724 130.655 7.1724C128.995 7.1724 128.995 7.4483 127.335 7.4483C125.675 7.4483 125.675 7.4483 124.015 7.4483C122.355 7.4483 122.355 7.47893 120.695 7.47893C119.035 7.47893 119.035 7.69347 117.375 7.69347C115.715 7.69347 115.715 7.6322 114.055 7.6322C112.395 7.6322 112.395 7.69347 110.735 7.69347C109.075 7.69347 109.075 7.32567 107.415 7.32567C105.755 7.32567 105.755 7.32567 104.095 7.32567C102.435 7.32567 102.435 7.93868 100.775 7.93868C99.1155 7.93868 99.1155 7.8161 97.4555 7.8161C95.7955 7.8161 95.7955 7.26435 94.1355 7.26435C92.4755 7.26435 92.4755 7.32567 90.8155 7.32567C89.1555 7.32567 89.1555 7.32567 87.4955 7.32567C85.8355 7.32567 85.8355 7.57088 84.1755 7.57088C82.5155 7.57088 82.5155 7.23372 80.8555 7.23372C79.1955 7.23372 79.1955 6.9885 77.5355 6.9885C75.8755 6.9885 75.8755 7.14177 74.2155 7.14177C72.5555 7.14177 72.5555 7.50957 70.8955 7.50957C69.2355 7.50957 69.2355 7.78546 67.5755 7.78546C65.9155 7.78546 65.9155 7.87742 64.2555 7.87742C62.5955 7.87742 62.5955 7.35635 60.9355 7.35635C59.2755 7.35635 59.2755 7.4483 57.6155 7.4483C55.9555 7.4483 55.9555 7.38698 54.2955 7.38698C52.6355 7.38698 52.6355 7.14177 50.9755 7.14177C49.3155 7.14177 49.3155 7.29503 47.6555 7.29503C45.9955 7.29503 45.9955 7.26435 44.3355 7.26435C42.6755 7.26435 42.6755 7.66283 41.0155 7.66283C39.3555 7.66283 39.3555 7.01918 37.6955 7.01918C36.0355 7.01918 36.0355 7.35635 34.3755 7.35635C32.7155 7.35635 32.7155 6.9885 31.0455 6.9885C29.3755 6.9885 29.3855 6.9885 27.7255 6.9885C26.0655 6.9885 26.0655 7.93868 24.4055 7.93868C22.7455 7.93868 22.7455 7.1724 21.0855 7.1724C19.4255 7.1724 19.4255 7.54025 17.7655 7.54025C16.1055 7.54025 16.1055 7.66283 14.4355 7.66283C12.7655 7.66283 12.7755 7.60152 11.1155 7.60152C9.45547 7.60152 9.45548 7.23372 7.78548 7.23372C6.11548 7.23372 6.12548 7.4483 4.45548 7.4483C2.78548 7.4483 2.79548 7.38698 1.12548 7.38698C-0.144524 7.38698 0.005477 5.9157 0.005477 4.01532C0.005477 2.11493 -0.144524 0.613017 1.12548 0.613017C2.78548 0.613017 2.78548 0.459798 4.44548 0.459798C6.10548 0.459798 6.10548 0.275851 7.76548 0.275851C9.42548 0.275851 9.42548 0.0919503 11.0855 0.0919503C12.7455 0.0919503 12.7455 0.582383 14.4055 0.582383C16.0655 0.582383 16.0655 0.704968 17.7255 0.704968C19.3855 0.704968 19.3855 0.613017 21.0455 0.613017C22.7055 0.613017 22.7055 0.337167 24.3655 0.337167C26.0255 0.337167 26.0255 0.582383 27.6855 0.582383C29.3455 0.582383 29.3455 0.582383 31.0055 0.582383C32.6655 0.582383 32.6655 0 34.3255 0C35.9855 0 35.9855 0.0613158 37.6455 0.0613158C39.3055 0.0613158 39.3055 0.858234 40.9655 0.858234C42.6255 0.858234 42.6255 0.275851 44.2855 0.275851C45.9455 0.275851 45.9455 0.490433 47.6055 0.490433C49.2655 0.490433 49.2655 0.183901 50.9255 0.183901C52.5855 0.183901 52.5855 0.674333 54.2455 0.674333C55.9055 0.674333 55.9055 0.429117 57.5655 0.429117C59.2255 0.429117 59.2255 0.766283 60.8855 0.766283C62.5455 0.766283 62.5455 0.613017 64.2055 0.613017C65.8655 0.613017 65.8655 0.980865 67.5255 0.980865C69.1855 0.980865 69.1855 0.766283 70.8455 0.766283C72.5055 0.766283 72.5055 0.459798 74.1655 0.459798C75.8255 0.459798 75.8255 0.0306345 77.4855 0.0306345C79.1455 0.0306345 79.1455 0.827599 80.8055 0.827599C82.4655 0.827599 82.4655 0.582383 84.1255 0.582383C85.7855 0.582383 85.7855 0.459798 87.4455 0.459798C89.1055 0.459798 89.1055 0.704968 90.7655 0.704968C92.4255 0.704968 92.4255 0.214582 94.0855 0.214582C95.7455 0.214582 95.7455 0.398482 97.4055 0.398482C99.0655 0.398482 99.0655 0.245216 100.725 0.245216C102.385 0.245216 102.385 0.459798 104.045 0.459798C105.705 0.459798 105.705 0.183901 107.365 0.183901C109.025 0.183901 109.025 0.367801 110.685 0.367801C112.345 0.367801 112.345 0.367801 114.005 0.367801C115.665 0.367801 115.665 0.0613158 117.325 0.0613158C118.985 0.0613158 118.985 0.275851 120.645 0.275851C122.305 0.275851 122.305 0.306532 123.965 0.306532C125.625 0.306532 125.625 0.0306345 127.285 0.0306345C128.945 0.0306345 128.945 0.398482 130.605 0.398482C132.265 0.398482 132.265 0.398482 133.925 0.398482C135.585 0.398482 135.585 0.766283 137.245 0.766283C138.905 0.766283 138.905 0.306532 140.565 0.306532C142.225 0.306532 142.225 0.306532 143.885 0.306532C145.545 0.306532 145.545 0.0613158 147.205 0.0613158C148.865 0.0613158 148.865 0.582383 150.525 0.582383C152.185 0.582383 152.185 0.0919503 153.845 0.0919503C155.505 0.0919503 155.505 0.275851 157.165 0.275851C158.825 0.275851 158.825 0.613017 160.485 0.613017C162.145 0.613017 162.145 0.888915 163.805 0.888915C165.465 0.888915 165.465 0.827599 167.125 0.827599C168.785 0.827599 168.785 0.521067 170.445 0.521067C172.105 0.521067 172.105 0.980865 173.765 0.980865C175.425 0.980865 175.425 0.796918 177.085 0.796918C178.745 0.796918 178.745 0.459798 180.405 0.459798C182.065 0.459798 182.065 0.183901 183.725 0.183901C185.385 0.183901 185.385 0.367801 187.045 0.367801C188.705 0.367801 188.705 0.613017 190.365 0.613017C192.025 0.613017 192.025 1.0115 193.685 1.0115C195.345 1.0115 195.345 0.153266 197.005 0.153266C198.665 0.153266 198.665 0.459798 200.325 0.459798C201.985 0.459798 201.985 1.0115 203.645 1.0115C205.305 1.0115 205.305 0.245216 206.965 0.245216C208.625 0.245216 208.625 0.459798 210.285 0.459798C211.945 0.459798 211.945 0.429117 213.605 0.429117C215.265 0.429117 215.265 0.858234 216.935 0.858234C218.605 0.858234 218.595 0.704968 220.255 0.704968C221.915 0.704968 221.915 0.674333 223.575 0.674333C225.235 0.674333 225.235 0.153266 226.895 0.153266C228.555 0.153266 228.555 0.153266 230.215 0.153266C231.875 0.153266 231.875 0.245216 233.545 0.245216C235.215 0.245216 235.205 1.04213 236.865 1.04213C238.525 1.04213 238.525 0.674333 240.195 0.674333C241.865 0.674333 241.855 1.07282 243.525 1.07282C245.195 1.07282 245.185 0.214582 246.855 0.214582C248.125 0.214582 247.935 2.11493 247.935 4.01532C247.935 5.9157 248.125 7.90805 246.855 7.90805V7.87742Z" fill="currentColor"/>
</svg>
