<svg width="160" height="9" viewBox="0 0 160 9" fill="none" xmlns="http://www.w3.org/2000/svg">
<path d="M157.227 7.94755C153.878 7.94755 153.878 8.23788 150.508 8.23788C147.138 8.23788 147.159 8.52821 143.789 8.52821C140.419 8.52821 140.44 8.52821 137.07 8.52821C133.7 8.52821 133.721 8.02015 130.351 8.02015C126.98 8.02015 127.002 8.96367 123.632 8.96367C120.261 8.96367 120.283 8.16529 116.912 8.16529C113.542 8.16529 113.564 8.81854 110.193 8.81854C106.823 8.81854 106.844 8.27415 103.474 8.27415C100.104 8.27415 100.125 8.02015 96.7551 8.02015C93.3849 8.02015 93.3849 8.96367 90.036 8.96367C86.6871 8.96367 86.6871 8.67335 83.3169 8.67335C79.9467 8.67335 79.968 8.31048 76.5978 8.31048C73.2275 8.31048 73.2489 8.09275 69.8787 8.09275C66.5085 8.09275 66.5085 8.70967 63.1596 8.70967C59.8107 8.70967 59.8107 8.85481 56.4405 8.85481C53.0702 8.85481 53.0916 8.41934 49.7214 8.41934C46.3511 8.41934 46.3725 8.49194 43.0022 8.49194C39.632 8.49194 39.6534 8.09275 36.2832 8.09275C32.9129 8.09275 32.9129 9 29.5641 9C26.2152 9 26.2152 9 22.8449 9C19.4747 9 19.4747 8.49194 16.1258 8.49194C12.777 8.49194 12.7556 8.38307 9.40672 8.38307C6.05783 8.38307 6.03652 8.16529 2.68763 8.16529C0.0853102 8.16529 0 6.67739 0 4.4274C0 2.17741 0.0853102 0 2.68763 0C6.03652 0 6.0365 0.326654 9.40672 0.326654C12.7769 0.326654 12.7556 0.907254 16.1258 0.907254C19.4961 0.907254 19.4747 0.43552 22.8449 0.43552C26.2152 0.43552 26.1938 0.181462 29.5641 0.181462C32.9343 0.181462 32.9129 0.254058 36.2832 0.254058C39.6534 0.254058 39.632 0.399194 43.0022 0.399194C46.3725 0.399194 46.3511 0.907254 49.7214 0.907254C53.0916 0.907254 53.0702 0.616926 56.4405 0.616926C59.8107 0.616926 59.7894 0 63.1596 0C66.5298 0 66.5085 0.870984 69.8787 0.870984C73.2489 0.870984 73.2275 0 76.5978 0C79.968 0 79.9467 0.870984 83.3169 0.870984C86.6871 0.870984 86.6871 0.50806 90.036 0.50806C93.3849 0.50806 93.4062 0.0363256 96.7551 0.0363256C100.104 0.0363256 100.104 0.97985 103.474 0.97985C106.844 0.97985 106.823 0.50806 110.193 0.50806C113.564 0.50806 113.542 0.181462 116.912 0.181462C120.283 0.181462 120.261 0.653252 123.632 0.653252C127.002 0.653252 127.002 1.01612 130.351 1.01612C133.7 1.01612 133.7 0.0725958 137.07 0.0725958C140.44 0.0725958 140.44 0.254058 143.789 0.254058C147.138 0.254058 147.159 0.47179 150.508 0.47179C153.857 0.47179 153.878 0.798388 157.227 0.798388C159.829 0.798388 160 2.28632 160 4.5726C160 6.85888 159.829 8.09275 157.227 8.09275V7.94755Z" fill="currentColor"/>
</svg>
