<svg width="391" height="26" viewBox="0 0 391 26" fill="none" xmlns="http://www.w3.org/2000/svg">
<path d="M0.919922 1.33008H2.89992L11.6699 23.1901L20.4099 1.33008H22.2799L12.4599 25.3201H10.7299L0.919922 1.33008Z" fill="currentColor"/>
<path d="M27.74 1.33008H26.02V25.3201H27.74V1.33008Z" fill="currentColor"/>
<path d="M33.78 20.9295C34.59 21.9095 35.57 22.7195 36.71 23.3395C37.85 23.9595 39.23 24.2795 40.87 24.2795C41.8 24.2795 42.66 24.1695 43.44 23.9595C44.22 23.7395 44.89 23.4295 45.45 23.0095C46.01 22.5895 46.45 22.0595 46.77 21.4295C47.08 20.7895 47.24 20.0595 47.24 19.2195C47.24 18.3295 47.07 17.5795 46.72 16.9595C46.37 16.3295 45.91 15.8095 45.34 15.3895C44.76 14.9695 44.11 14.6295 43.38 14.3595C42.65 14.0995 41.91 13.8595 41.17 13.6495C40.26 13.4095 39.35 13.1395 38.44 12.8395C37.53 12.5395 36.72 12.1495 35.99 11.6495C35.27 11.1595 34.69 10.5395 34.25 9.77953C33.8 9.01953 33.58 8.04953 33.58 6.84953C33.58 6.02953 33.75 5.24953 34.08 4.50953C34.42 3.76953 34.9 3.11953 35.53 2.56953C36.17 2.01953 36.95 1.57953 37.87 1.25953C38.8 0.929531 39.84 0.769531 41.01 0.769531C42.02 0.769531 42.91 0.879531 43.69 1.08953C44.47 1.30953 45.15 1.57953 45.74 1.89953C46.33 2.22953 46.82 2.57953 47.22 2.95953C47.62 3.33953 47.95 3.71953 48.21 4.06953L46.99 5.10953C46.77 4.82953 46.5 4.51953 46.16 4.19953C45.82 3.86953 45.42 3.57953 44.94 3.29953C44.46 3.02953 43.89 2.79953 43.23 2.61953C42.57 2.43953 41.81 2.34953 40.95 2.34953C39.97 2.34953 39.12 2.47953 38.41 2.73953C37.7 3.00953 37.12 3.35953 36.67 3.78953C36.21 4.21953 35.87 4.70953 35.66 5.24953C35.44 5.78953 35.34 6.33953 35.34 6.91953C35.34 7.77953 35.54 8.48953 35.93 9.05953C36.32 9.61953 36.85 10.0895 37.49 10.4595C38.14 10.8295 38.86 11.1395 39.67 11.3795C40.47 11.6195 41.28 11.8495 42.09 12.0595C42.93 12.2795 43.77 12.5495 44.61 12.8695C45.45 13.1895 46.2 13.6295 46.86 14.1695C47.51 14.7095 48.05 15.3895 48.47 16.1995C48.89 17.0195 49.1 18.0195 49.1 19.2195C49.1 20.2495 48.88 21.1795 48.45 22.0095C48.02 22.8395 47.44 23.5295 46.7 24.1095C45.97 24.6795 45.1 25.1295 44.1 25.4395C43.09 25.7595 42.01 25.9095 40.86 25.9095C39.85 25.9095 38.92 25.7995 38.05 25.5895C37.19 25.3695 36.4 25.0895 35.7 24.7395C34.99 24.3895 34.37 23.9995 33.83 23.5495C33.29 23.0995 32.85 22.6395 32.52 22.1595L33.78 20.9395V20.9295Z" fill="currentColor"/>
<path d="M54.0298 1.33008H55.7498V14.8501C55.7498 16.2101 55.8598 17.4701 56.0698 18.6201C56.2898 19.7701 56.6798 20.7701 57.2398 21.6101C57.8098 22.4501 58.5598 23.1001 59.5298 23.5701C60.4798 24.0401 61.7098 24.2701 63.1998 24.2701C64.6898 24.2701 65.9098 24.0401 66.8698 23.5701C67.8298 23.1001 68.5898 22.4501 69.1598 21.6101C69.7198 20.7701 70.1098 19.7801 70.3298 18.6201C70.5398 17.4701 70.6498 16.2101 70.6498 14.8501V1.33008H72.3698V15.7501C72.3698 17.1701 72.2198 18.4901 71.9198 19.7301C71.6198 20.9601 71.1198 22.0401 70.4098 22.9501C69.7098 23.8601 68.7598 24.5801 67.5898 25.1101C66.4098 25.6301 64.9598 25.9001 63.2098 25.9001C61.4598 25.9001 59.9898 25.6301 58.8198 25.1101C57.6498 24.5801 56.6998 23.8601 55.9998 22.9501C55.2898 22.0401 54.7798 20.9701 54.4898 19.7301C54.1898 18.5001 54.0398 17.1701 54.0398 15.7501V1.33008H54.0298Z" fill="currentColor"/>
<path d="M85.0998 1.33008H86.8298L96.6498 25.3201H94.6698L91.5398 17.5901H80.2498L77.1498 25.3201H75.2798L85.0998 1.33008ZM90.8898 15.9701L85.8898 3.53008L80.8998 15.9701H90.8898Z" fill="currentColor"/>
<path d="M100.46 1.33008H102.19V23.7001H115.78V25.3201H100.46V1.33008Z" fill="currentColor"/>
<path d="M121.6 1.33008H119.88V25.3201H121.6V1.33008Z" fill="currentColor"/>
<path d="M126.46 23.7301L142.61 2.95008H127.25V1.33008H144.84V2.91008L128.69 23.7001H145.09V25.3201H126.46V23.7301Z" fill="currentColor"/>
<path d="M151.67 1.33008H149.94V25.3201H151.67V1.33008Z" fill="currentColor"/>
<path d="M157.86 1.33008H159.65L175.05 22.7301V1.33008H176.73V25.3201H174.94L159.55 4.20008V25.3201H157.86V1.33008Z" fill="currentColor"/>
<path d="M200.98 15.5795H194.58V13.9595H202.7V22.9495C202.29 23.3095 201.8 23.6595 201.23 24.0095C200.66 24.3595 199.99 24.6795 199.24 24.9695C198.48 25.2595 197.63 25.4795 196.69 25.6495C195.74 25.8195 194.68 25.9095 193.51 25.9095C191.78 25.9095 190.2 25.5995 188.76 24.9895C187.32 24.3795 186.09 23.5095 185.07 22.3995C184.05 21.2895 183.26 19.9495 182.7 18.4095C182.14 16.8595 181.85 15.1695 181.85 13.3195C181.85 11.5695 182.13 9.93953 182.7 8.40953C183.26 6.88953 184.05 5.55953 185.07 4.41953C186.09 3.27953 187.32 2.38953 188.76 1.73953C190.2 1.08953 191.78 0.769531 193.51 0.769531C194.92 0.769531 196.14 0.959531 197.16 1.34953C198.18 1.72953 199.04 2.17953 199.73 2.69953C200.42 3.20953 200.97 3.71953 201.36 4.21953C201.75 4.71953 202.03 5.08953 202.17 5.33953L200.87 6.23953C200.72 6.04953 200.49 5.73953 200.15 5.32953C199.81 4.90953 199.36 4.47953 198.77 4.04953C198.18 3.61953 197.47 3.22953 196.63 2.89953C195.79 2.55953 194.81 2.38953 193.68 2.38953C192.13 2.38953 190.73 2.66953 189.49 3.23953C188.25 3.79953 187.21 4.57953 186.36 5.55953C185.51 6.53953 184.86 7.69953 184.4 9.02953C183.94 10.3595 183.72 11.7895 183.72 13.3295C183.72 14.8695 183.94 16.2995 184.38 17.6295C184.83 18.9595 185.47 20.1195 186.32 21.1195C187.17 22.1195 188.2 22.8895 189.41 23.4495C190.62 24.0195 191.98 24.2995 193.49 24.2995C195.33 24.2995 196.85 24.0995 198.04 23.6895C199.23 23.2795 200.2 22.7995 200.97 22.2495V15.5995L200.98 15.5795Z" fill="currentColor"/>
<path d="M207.81 1.33008H217.59C218.89 1.33008 220.05 1.51008 221.1 1.85008C222.14 2.20008 223.03 2.70008 223.78 3.36008C224.52 4.02008 225.1 4.84008 225.51 5.84008C225.91 6.84008 226.12 7.98008 226.12 9.27008C226.12 10.4901 225.91 11.6001 225.49 12.6001C225.07 13.6001 224.49 14.4501 223.76 15.1501C223.03 15.8601 222.16 16.4001 221.13 16.7701C220.11 17.1401 218.99 17.3201 217.77 17.3201H214.03V25.3101H207.81V1.33008ZM217.05 12.3401C217.91 12.3401 218.6 12.0601 219.1 11.5101C219.61 10.9601 219.85 10.2501 219.85 9.39008C219.85 8.48008 219.61 7.75008 219.14 7.20008C218.66 6.65008 217.95 6.37008 217.02 6.37008H214.03V12.3401H217.05Z" fill="currentColor"/>
<path d="M233.05 1.33008H240.35L248.83 25.3201H241.96L240.41 20.3601H232.4L230.82 25.3201H224.24L233.05 1.33008ZM239.13 15.7101L236.47 6.90008L233.7 15.7101H239.13Z" fill="currentColor"/>
<path d="M251.36 1.33008H257.72V19.7101H268.83V25.3201H251.36V1.33008Z" fill="currentColor"/>
<path d="M271.71 1.33008H288.97V6.83008H278.08V10.5401H287.03V15.7101H278.08V19.8101H289.73V25.3201H271.71V1.33008Z" fill="currentColor"/>
<path d="M295.09 17.7302C295.76 18.4002 296.64 19.0102 297.71 19.5602C298.79 20.1102 299.98 20.3902 301.27 20.3902C301.58 20.3902 301.9 20.3602 302.24 20.3002C302.58 20.2402 302.87 20.1402 303.14 20.0002C303.41 19.8602 303.62 19.6602 303.79 19.4202C303.95 19.1802 304.04 18.8702 304.04 18.4902C304.04 17.8702 303.72 17.3502 303.09 16.9502C302.46 16.5402 301.53 16.1302 300.31 15.7202L298.98 15.2902C298.23 15.0502 297.49 14.7402 296.73 14.3502C295.98 13.9702 295.3 13.5102 294.7 12.9602C294.1 12.4302 293.61 11.7902 293.25 11.0602C292.87 10.3302 292.69 9.4702 292.69 8.4902C292.69 7.3902 292.9 6.3702 293.3 5.4202C293.71 4.4702 294.3 3.6502 295.08 2.9402C295.85 2.2402 296.82 1.6802 297.98 1.2902C299.13 0.890195 300.46 0.700195 301.97 0.700195C303.15 0.700195 304.22 0.810196 305.18 1.0202C306.14 1.2402 306.98 1.5002 307.7 1.8102C308.42 2.1202 309.03 2.4502 309.53 2.8202C310.04 3.1802 310.42 3.5002 310.68 3.7902L307.44 7.89019C306.6 7.27019 305.73 6.7502 304.82 6.3602C303.91 5.9602 302.97 5.7602 302.01 5.7602C301.7 5.7602 301.39 5.8002 301.08 5.8702C300.77 5.9402 300.49 6.0502 300.24 6.1902C299.99 6.3302 299.79 6.5202 299.63 6.7402C299.48 6.9702 299.4 7.2502 299.4 7.5902C299.4 7.9502 299.49 8.2602 299.67 8.5302C299.85 8.8002 300.1 9.02019 300.41 9.21019C300.72 9.41019 301.1 9.5802 301.54 9.7302C301.98 9.8902 302.46 10.0502 302.96 10.2202L304.11 10.5802C304.92 10.8402 305.75 11.1502 306.59 11.5002C307.43 11.8502 308.18 12.3202 308.85 12.9002C309.52 13.4902 310.08 14.2202 310.51 15.0902C310.94 15.9602 311.16 17.0402 311.16 18.3002C311.16 19.4002 310.9 20.4302 310.39 21.3602C309.88 22.2902 309.18 23.1002 308.3 23.7702C307.43 24.4402 306.39 24.9702 305.21 25.3402C304.02 25.7102 302.76 25.9002 301.41 25.9002C299.02 25.9002 297.01 25.5802 295.39 24.9402C293.77 24.3102 292.4 23.4502 291.28 22.3702L295.12 17.7302H295.09Z" fill="currentColor"/>
<path d="M319.83 6.90008H312.46V1.33008H333.56V6.90008H326.26V25.3201H319.83V6.90008Z" fill="currentColor"/>
<path d="M342.8 1.33008H336.44V25.3201H342.8V1.33008Z" fill="currentColor"/>
<path d="M347.12 1.33008H352.91L362.12 14.7101V1.33008H368.41V25.3201H362.98L353.41 11.5401V25.3201H347.12V1.33008Z" fill="currentColor"/>
<path d="M372.73 1.33008H389.99V6.83008H379.09V10.5401H388.05V15.7101H379.09V19.8101H390.75V25.3201H372.73V1.33008Z" fill="currentColor"/>
</svg>
